{
  "source": "C:\\Users\\Peter\\Desktop\\stuff\\MIUN\\quantitative_research\\video_compression\\videos\\UVG\\YachtRide_1920x1080_120fps_420_8bit_YUV.y4m",
  "output": "C:\\Users\\Peter\\Desktop\\stuff\\MIUN\\quantitative_research\\video_compression\\compressed_videos\\UVG\\hevc\\1.5\\YachtRide_1920x1080_120fps_420_8bit_YUV_hevc.mp4",
  "codec": "hevc",
  "ok": "[yuv4mpegpipe @ 0000017a26b76740] Stream #0: not enough frames to estimate rate; consider increasing probesize\nInput #0, yuv4mpegpipe, from 'C:\\Users\\Peter\\Desktop\\stuff\\MIUN\\quantitative_research\\video_compression\\videos\\UVG\\YachtRide_1920x1080_120fps_420_8bit_YUV.y4m':\n  Duration: 00:00:05.00, start: 0.000000, bitrate: 2985989 kb/s\n  Stream #0:0: Video: rawvideo (I420 / 0x30323449), yuv420p(progressive), 1920x1080, 120 fps, 120 tbr, 120 tbn\n[out#0/mp4 @ 0000017a26b79ac0] Codec AVOption b:a (set bitrate (in bits/s)) has not been used for any stream. The most likely reason is either wrong type (e.g. a video option with no video streams) or that it is a private option of some decoder which was not actually used for any stream.\nStream mapping:\n  Stream #0:0 -> #0:0 (rawvideo (native) -> hevc (libx265))\nPress [q] to stop, [?] for help\n[libx265 @ 0000017a26b7cb00] Unknown option: \"aq-mode.\nx265 [info]: HEVC encoder version 4.1+190-8f11c33ac\nx265 [info]: build info [Windows][GCC 15.1.0][64 bit] 10bit\nx265 [info]: using cpu capabilities: MMX2 SSE2Fast LZCNT SSSE3 SSE4.2 AVX FMA3 BMI2 AVX2\nx265 [info]: Main 10 profile, Level-5 (Main tier)\nx265 [info]: Thread pool created using 12 threads\nx265 [info]: Slices                              : 1\nx265 [info]: frame threads / pool features       : 3 / wpp(17 rows)\nx265 [info]: Coding QT: max CU size, min CU size : 64 / 8\nx265 [info]: Residual QT: max TU size, max depth : 32 / 1 inter / 1 intra\nx265 [info]: ME / range / subpel / merge         : star / 57 / 3 / 3\nx265 [info]: Keyframe min / max / scenecut / bias  : 25 / 250 / 40 / 5.00 \nx265 [info]: Lookahead / bframes / badapt        : 25 / 4 / 2\nx265 [info]: b-pyramid / weightp / weightb       : 1 / 1 / 0\nx265 [info]: References / ref-limit  cu / depth  : 4 / on / on\nx265 [info]: AQ: mode / str / qg-size / cu-tree  : 2 / 1.0 / 32 / 1\nx265 [info]: Rate Control / qCompress            : ABR-1500 kbps / 0.60\nx265 [info]: VBV/HRD buffer / max-rate / init    : 1500 / 1500 / 0.750\nx265 [info]: tools: rect limit-modes rd=4 psy-rd=2.00 rdoq=2 psy-rdoq=1.00\nx265 [info]: tools: rskip mode=1 signhide tmvp strong-intra-smoothing lslices=4\nx265 [info]: tools: deblock sao dhdr10-info\nOutput #0, mp4, to 'C:\\Users\\Peter\\Desktop\\stuff\\MIUN\\quantitative_research\\video_compression\\compressed_videos\\UVG\\hevc\\1.5\\YachtRide_1920x1080_120fps_420_8bit_YUV_hevc.mp4':\n  Metadata:\n    encoder         : Lavf62.3.100\n  Stream #0:0: Video: hevc (hev1 / 0x31766568), yuv420p10le(tv, progressive), 1920x1080, q=2-31, 1500 kb/s, 120 fps, 15360 tbn\n    Metadata:\n      encoder         : Lavc62.11.100 libx265\n    Side data:\n      cpb: bitrate max/min/avg: 1500000/0/1500000 buffer size: 1500000 vbv_delay: N/A\nframe=    0 fps=0.0 q=0.0 size=       0KiB time=N/A bitrate=N/A speed=N/A elapsed=0:00:00.51    \nframe=    0 fps=0.0 q=0.0 size=       0KiB time=N/A bitrate=N/A speed=N/A elapsed=0:00:01.04    \nframe=    0 fps=0.0 q=0.0 size=       0KiB time=N/A bitrate=N/A speed=N/A elapsed=0:00:01.56    \nframe=    0 fps=0.0 q=0.0 size=       0KiB time=N/A bitrate=N/A speed=N/A elapsed=0:00:02.08    \nframe=    0 fps=0.0 q=0.0 size=       0KiB time=N/A bitrate=N/A speed=N/A elapsed=0:00:02.60    \nframe=    0 fps=0.0 q=0.0 size=       0KiB time=N/A bitrate=N/A speed=N/A elapsed=0:00:03.10    \nframe=    0 fps=0.0 q=0.0 size=       0KiB time=N/A bitrate=N/A speed=N/A elapsed=0:00:03.64    \nframe=    0 fps=0.0 q=0.0 size=       0KiB time=N/A bitrate=N/A speed=N/A elapsed=0:00:04.17    \nframe=    1 fps=0.2 q=50.8 size=       0KiB time=-00:00:00.00 bitrate=N/A speed=N/A elapsed=0:00:04.68    \nframe=    2 fps=0.4 q=51.0 size=       0KiB time=00:00:00.00 bitrate=N/A speed=   0x elapsed=0:00:05.22    \nframe=    3 fps=0.5 q=51.0 size=       0KiB time=00:00:00.00 bitrate=  42.2kbits/s speed=0.00145x elapsed=0:00:05.75    \nframe=    4 fps=0.6 q=51.0 size=       0KiB time=00:00:00.01 bitrate=  21.1kbits/s speed=0.00265x elapsed=0:00:06.28    \nframe=    5 fps=0.7 q=51.0 size=       0KiB time=00:00:00.02 bitrate=  14.1kbits/s speed=0.00368x elapsed=0:00:06.79    \nframe=    6 fps=0.8 q=51.0 size=       0KiB time=00:00:00.03 bitrate=  10.6kbits/s speed=0.00455x elapsed=0:00:07.32    \nframe=    7 fps=0.9 q=50.8 size=       0KiB time=00:00:00.04 bitrate=   8.4kbits/s speed=0.0053x elapsed=0:00:07.85    \nframe=    8 fps=1.0 q=51.0 size=       0KiB time=00:00:00.05 bitrate=   7.0kbits/s speed=0.00597x elapsed=0:00:08.37    \nframe=    9 fps=1.0 q=51.0 size=       0KiB time=00:00:00.05 bitrate=   6.0kbits/s speed=0.00656x elapsed=0:00:08.89    \nframe=   11 fps=1.2 q=48.5 size=       0KiB time=00:00:00.07 bitrate=   4.7kbits/s speed=0.00796x elapsed=0:00:09.42    \nframe=   12 fps=1.2 q=50.9 size=       0KiB time=00:00:00.08 bitrate=   4.2kbits/s speed=0.00839x elapsed=0:00:09.93    \nframe=   13 fps=1.2 q=51.0 size=       0KiB time=00:00:00.09 bitrate=   3.8kbits/s speed=0.00876x elapsed=0:00:10.46    \nframe=   13 fps=1.2 q=51.0 size=       0KiB time=00:00:00.09 bitrate=   3.8kbits/s speed=0.00834x elapsed=0:00:10.98    \nframe=   15 fps=1.3 q=46.4 size=       0KiB time=00:00:00.10 bitrate=   3.2kbits/s speed=0.00942x elapsed=0:00:11.49    \nframe=   16 fps=1.3 q=50.8 size=       0KiB time=00:00:00.11 bitrate=   3.0kbits/s speed=0.00971x elapsed=0:00:12.01    \nframe=   16 fps=1.3 q=50.8 size=       0KiB time=00:00:00.11 bitrate=   3.0kbits/s speed=0.00931x elapsed=0:00:12.53    \nframe=   17 fps=1.3 q=51.0 size=       0KiB time=00:00:00.12 bitrate=   2.8kbits/s speed=0.00956x elapsed=0:00:13.07    \nframe=   18 fps=1.3 q=51.0 size=       0KiB time=00:00:00.13 bitrate=   2.6kbits/s speed=0.00978x elapsed=0:00:13.62    \nframe=   19 fps=1.3 q=45.2 size=       0KiB time=00:00:00.14 bitrate=   2.5kbits/s speed=0.01x elapsed=0:00:14.15    \nframe=   20 fps=1.4 q=50.4 size=       0KiB time=00:00:00.15 bitrate=   2.3kbits/s speed=0.0102x elapsed=0:00:14.66    \nframe=   21 fps=1.4 q=51.0 size=       0KiB time=00:00:00.15 bitrate=   2.2kbits/s speed=0.0104x elapsed=0:00:15.18    \nframe=   21 fps=1.3 q=51.0 size=       0KiB time=00:00:00.15 bitrate=   2.2kbits/s speed=0.0101x elapsed=0:00:15.71    \nframe=   23 fps=1.4 q=45.4 size=       0KiB time=00:00:00.17 bitrate=   2.0kbits/s speed=0.0108x elapsed=0:00:16.24    \nframe=   25 fps=1.5 q=50.0 size=       0KiB time=00:00:00.19 bitrate=   1.8kbits/s speed=0.0114x elapsed=0:00:16.78    \nframe=   25 fps=1.4 q=50.0 size=       0KiB time=00:00:00.19 bitrate=   1.8kbits/s speed=0.0111x elapsed=0:00:17.31    \nframe=   26 fps=1.5 q=49.9 size=       0KiB time=00:00:00.20 bitrate=   1.8kbits/s speed=0.0112x elapsed=0:00:17.84    \nframe=   27 fps=1.5 q=44.7 size=       0KiB time=00:00:00.20 bitrate=   1.7kbits/s speed=0.0113x elapsed=0:00:18.39    \nframe=   28 fps=1.5 q=49.3 size=       0KiB time=00:00:00.21 bitrate=   1.6kbits/s speed=0.0115x elapsed=0:00:18.90    \nframe=   28 fps=1.4 q=49.3 size=       0KiB time=00:00:00.21 bitrate=   1.6kbits/s speed=0.0111x elapsed=0:00:19.43    \nframe=   29 fps=1.5 q=50.0 size=       0KiB time=00:00:00.22 bitrate=   1.6kbits/s speed=0.0113x elapsed=0:00:19.96    \nframe=   30 fps=1.5 q=50.0 size=       0KiB time=00:00:00.23 bitrate=   1.5kbits/s speed=0.0114x elapsed=0:00:20.47    \nframe=   31 fps=1.5 q=44.6 size=       0KiB time=00:00:00.24 bitrate=   1.5kbits/s speed=0.0115x elapsed=0:00:21.00    \nframe=   32 fps=1.5 q=48.4 size=       0KiB time=00:00:00.25 bitrate=   1.4kbits/s speed=0.0116x elapsed=0:00:21.52    \nframe=   32 fps=1.5 q=48.4 size=       0KiB time=00:00:00.25 bitrate=   1.4kbits/s speed=0.0113x elapsed=0:00:22.03    \nframe=   33 fps=1.5 q=50.0 size=       0KiB time=00:00:00.25 bitrate=   1.4kbits/s speed=0.0114x elapsed=0:00:22.56    \nframe=   35 fps=1.5 q=44.2 size=       0KiB time=00:00:00.27 bitrate=   1.3kbits/s speed=0.0119x elapsed=0:00:23.08    \nframe=   36 fps=1.5 q=48.5 size=       0KiB time=00:00:00.28 bitrate=   1.2kbits/s speed=0.012x elapsed=0:00:23.59    \nframe=   37 fps=1.5 q=50.0 size=       0KiB time=00:00:00.29 bitrate=   1.2kbits/s speed=0.0121x elapsed=0:00:24.10    \nframe=   38 fps=1.5 q=49.9 size=       0KiB time=00:00:00.30 bitrate=   1.2kbits/s speed=0.0122x elapsed=0:00:24.62    \nframe=   39 fps=1.5 q=44.8 size=       0KiB time=00:00:00.30 bitrate=   1.1kbits/s speed=0.0122x elapsed=0:00:25.18    \nframe=   40 fps=1.6 q=48.3 size=       0KiB time=00:00:00.31 bitrate=   1.1kbits/s speed=0.0123x elapsed=0:00:25.70    \nframe=   40 fps=1.5 q=48.3 size=       0KiB time=00:00:00.31 bitrate=   1.1kbits/s speed=0.0121x elapsed=0:00:26.21    \nframe=   40 fps=1.5 q=48.3 size=       0KiB time=00:00:00.31 bitrate=   1.1kbits/s speed=0.0118x elapsed=0:00:26.72    \nframe=   41 fps=1.5 q=50.0 size=       0KiB time=00:00:00.32 bitrate=   1.1kbits/s speed=0.0119x elapsed=0:00:27.25    \nframe=   42 fps=1.5 q=50.0 size=       0KiB time=00:00:00.33 bitrate=   1.1kbits/s speed=0.012x elapsed=0:00:27.79    \nframe=   43 fps=1.5 q=45.0 size=       0KiB time=00:00:00.34 bitrate=   1.0kbits/s speed=0.0121x elapsed=0:00:28.32    \nframe=   44 fps=1.5 q=48.3 size=       0KiB time=00:00:00.35 bitrate=   1.0kbits/s speed=0.0121x elapsed=0:00:28.85    \nframe=   44 fps=1.5 q=48.3 size=       0KiB time=00:00:00.35 bitrate=   1.0kbits/s speed=0.0119x elapsed=0:00:29.39    \nframe=   45 fps=1.5 q=50.0 size=       0KiB time=00:00:00.35 bitrate=   1.0kbits/s speed=0.012x elapsed=0:00:29.90    \nframe=   46 fps=1.5 q=50.0 size=       0KiB time=00:00:00.36 bitrate=   1.0kbits/s speed=0.012x elapsed=0:00:30.45    \nframe=   48 fps=1.5 q=48.4 size=       0KiB time=00:00:00.38 bitrate=   0.9kbits/s speed=0.0124x elapsed=0:00:30.98    \nframe=   49 fps=1.6 q=50.0 size=       0KiB time=00:00:00.39 bitrate=   0.9kbits/s speed=0.0124x elapsed=0:00:31.53    \nframe=   50 fps=1.6 q=49.9 size=       0KiB time=00:00:00.40 bitrate=   0.9kbits/s speed=0.0125x elapsed=0:00:32.07    \nframe=   51 fps=1.6 q=45.6 size=       0KiB time=00:00:00.40 bitrate=   0.9kbits/s speed=0.0125x elapsed=0:00:32.58    \nframe=   52 fps=1.6 q=47.8 size=       0KiB time=00:00:00.41 bitrate=   0.8kbits/s speed=0.0126x elapsed=0:00:33.13    \nframe=   53 fps=1.6 q=50.0 size=       0KiB time=00:00:00.42 bitrate=   0.8kbits/s speed=0.0126x elapsed=0:00:33.67    \nframe=   54 fps=1.6 q=50.0 size=       0KiB time=00:00:00.43 bitrate=   0.8kbits/s speed=0.0127x elapsed=0:00:34.21    \nframe=   55 fps=1.6 q=45.0 size=       0KiB time=00:00:00.44 bitrate=   0.8kbits/s speed=0.0127x elapsed=0:00:34.73    \nframe=   56 fps=1.6 q=48.2 size=       0KiB time=00:00:00.45 bitrate=   0.8kbits/s speed=0.0128x elapsed=0:00:35.26    \nframe=   57 fps=1.6 q=49.9 size=       0KiB time=00:00:00.45 bitrate=   0.8kbits/s speed=0.0128x elapsed=0:00:35.80    \nframe=   58 fps=1.6 q=50.0 size=       0KiB time=00:00:00.46 bitrate=   0.8kbits/s speed=0.0128x elapsed=0:00:36.34    \nframe=   60 fps=1.6 q=48.1 size=       0KiB time=00:00:00.48 bitrate=   0.7kbits/s speed=0.0131x elapsed=0:00:36.86    \nframe=   60 fps=1.6 q=48.1 size=       0KiB time=00:00:00.48 bitrate=   0.7kbits/s speed=0.0129x elapsed=0:00:37.41    \nframe=   61 fps=1.6 q=49.9 size=       0KiB time=00:00:00.49 bitrate=   0.7kbits/s speed=0.013x elapsed=0:00:37.95    \nframe=   63 fps=1.6 q=44.3 size=       0KiB time=00:00:00.50 bitrate=   0.7kbits/s speed=0.013x elapsed=0:00:38.50    \nframe=   63 fps=1.6 q=44.3 size=       0KiB time=00:00:00.50 bitrate=   0.7kbits/s speed=0.013x elapsed=0:00:39.04    \nframe=   64 fps=1.6 q=48.0 size=       0KiB time=00:00:00.51 bitrate=   0.7kbits/s speed=0.0131x elapsed=0:00:39.57    \nframe=   65 fps=1.6 q=49.9 size=       0KiB time=00:00:00.52 bitrate=   0.7kbits/s speed=0.0131x elapsed=0:00:40.10    \nframe=   66 fps=1.6 q=49.9 size=       0KiB time=00:00:00.53 bitrate=   0.7kbits/s speed=0.0131x elapsed=0:00:40.62    \nframe=   66 fps=1.6 q=49.9 size=       0KiB time=00:00:00.53 bitrate=   0.7kbits/s speed=0.013x elapsed=0:00:41.14    \nframe=   68 fps=1.6 q=48.1 size=       0KiB time=00:00:00.55 bitrate=   0.6kbits/s speed=0.0132x elapsed=0:00:41.65    \nframe=   68 fps=1.6 q=48.1 size=       0KiB time=00:00:00.55 bitrate=   0.6kbits/s speed=0.013x elapsed=0:00:42.19    \nframe=   69 fps=1.6 q=50.0 size=       0KiB time=00:00:00.55 bitrate=   0.6kbits/s speed=0.0131x elapsed=0:00:42.70    \nframe=   70 fps=1.6 q=50.0 size=       0KiB time=00:00:00.56 bitrate=   0.6kbits/s speed=0.0131x elapsed=0:00:43.21    \nframe=   72 fps=1.6 q=48.3 size=       0KiB time=00:00:00.58 bitrate=   0.6kbits/s speed=0.0133x elapsed=0:00:43.74    \nframe=   72 fps=1.6 q=48.3 size=       0KiB time=00:00:00.58 bitrate=   0.6kbits/s speed=0.0132x elapsed=0:00:44.26    \nframe=   72 fps=1.6 q=48.3 size=       0KiB time=00:00:00.58 bitrate=   0.6kbits/s speed=0.013x elapsed=0:00:44.78    \nframe=   74 fps=1.6 q=50.0 size=       0KiB time=00:00:00.60 bitrate=   0.6kbits/s speed=0.0132x elapsed=0:00:45.29    \nframe=   74 fps=1.6 q=50.0 size=       0KiB time=00:00:00.60 bitrate=   0.6kbits/s speed=0.0131x elapsed=0:00:45.81    \nframe=   76 fps=1.6 q=48.2 size=       0KiB time=00:00:00.61 bitrate=   0.6kbits/s speed=0.0133x elapsed=0:00:46.34    \nframe=   77 fps=1.6 q=50.0 size=       0KiB time=00:00:00.62 bitrate=   0.6kbits/s speed=0.0133x elapsed=0:00:46.87    \nframe=   78 fps=1.6 q=49.9 size=       0KiB time=00:00:00.63 bitrate=   0.6kbits/s speed=0.0134x elapsed=0:00:47.38    \nframe=   78 fps=1.6 q=49.9 size=       0KiB time=00:00:00.63 bitrate=   0.6kbits/s speed=0.0132x elapsed=0:00:47.93    \nframe=   78 fps=1.6 q=49.9 size=       0KiB time=00:00:00.63 bitrate=   0.6kbits/s speed=0.0131x elapsed=0:00:48.47    \nframe=   79 fps=1.6 q=45.4 size=       0KiB time=00:00:00.64 bitrate=   0.5kbits/s speed=0.0131x elapsed=0:00:48.98    \nframe=   80 fps=1.6 q=48.3 size=       0KiB time=00:00:00.65 bitrate=   0.5kbits/s speed=0.0131x elapsed=0:00:49.49    \nframe=   81 fps=1.6 q=50.0 size=       0KiB time=00:00:00.65 bitrate=   0.5kbits/s speed=0.0132x elapsed=0:00:50.03    \nframe=   82 fps=1.6 q=50.0 size=       0KiB time=00:00:00.66 bitrate=   0.5kbits/s speed=0.0132x elapsed=0:00:50.56    \nframe=   84 fps=1.6 q=48.4 size=       0KiB time=00:00:00.68 bitrate=   0.5kbits/s speed=0.0134x elapsed=0:00:51.07    \nframe=   85 fps=1.6 q=50.0 size=       0KiB time=00:00:00.69 bitrate=   0.5kbits/s speed=0.0134x elapsed=0:00:51.59    \nframe=   85 fps=1.6 q=50.0 size=       0KiB time=00:00:00.69 bitrate=   0.5kbits/s speed=0.0133x elapsed=0:00:52.12    \nframe=   87 fps=1.7 q=45.3 size=       0KiB time=00:00:00.70 bitrate=   0.5kbits/s speed=0.0135x elapsed=0:00:52.65    \nframe=   89 fps=1.7 q=50.0 size=       0KiB time=00:00:00.72 bitrate=   0.5kbits/s speed=0.0136x elapsed=0:00:53.17    \nframe=   89 fps=1.7 q=50.0 size=       0KiB time=00:00:00.72 bitrate=   0.5kbits/s speed=0.0135x elapsed=0:00:53.71    \nframe=   90 fps=1.7 q=49.8 size=       0KiB time=00:00:00.73 bitrate=   0.5kbits/s speed=0.0135x elapsed=0:00:54.23    \nframe=   92 fps=1.7 q=48.5 size=       0KiB time=00:00:00.75 bitrate=   0.5kbits/s speed=0.0137x elapsed=0:00:54.74    \nframe=   92 fps=1.7 q=48.5 size=       0KiB time=00:00:00.75 bitrate=   0.5kbits/s speed=0.0136x elapsed=0:00:55.29    \nframe=   93 fps=1.7 q=50.0 size=       0KiB time=00:00:00.75 bitrate=   0.5kbits/s speed=0.0136x elapsed=0:00:55.81    \nframe=   95 fps=1.7 q=44.6 size=       0KiB time=00:00:00.77 bitrate=   0.5kbits/s speed=0.0138x elapsed=0:00:56.34    \nframe=   96 fps=1.7 q=48.0 size=       0KiB time=00:00:00.78 bitrate=   0.4kbits/s speed=0.0138x elapsed=0:00:56.86    \nframe=   97 fps=1.7 q=50.0 size=       0KiB time=00:00:00.79 bitrate=   0.4kbits/s speed=0.0138x elapsed=0:00:57.40    \nframe=   97 fps=1.7 q=50.0 size=       0KiB time=00:00:00.79 bitrate=   0.4kbits/s speed=0.0137x elapsed=0:00:57.92    \nframe=   97 fps=1.7 q=50.0 size=       0KiB time=00:00:00.79 bitrate=   0.4kbits/s speed=0.0135x elapsed=0:00:58.46    \nframe=   98 fps=1.7 q=50.0 size=       0KiB time=00:00:00.80 bitrate=   0.4kbits/s speed=0.0136x elapsed=0:00:59.00    \nframe=   98 fps=1.6 q=50.0 size=       0KiB time=00:00:00.80 bitrate=   0.4kbits/s speed=0.0134x elapsed=0:00:59.52    \nframe=   98 fps=1.6 q=50.0 size=       0KiB time=00:00:00.80 bitrate=   0.4kbits/s speed=0.0133x elapsed=0:01:00.07    \nframe=   99 fps=1.6 q=44.2 size=       0KiB time=00:00:00.80 bitrate=   0.4kbits/s speed=0.0133x elapsed=0:01:00.62    \nframe=  100 fps=1.6 q=48.2 size=       0KiB time=00:00:00.81 bitrate=   0.4kbits/s speed=0.0133x elapsed=0:01:01.17    \nframe=  100 fps=1.6 q=48.2 size=       0KiB time=00:00:00.81 bitrate=   0.4kbits/s speed=0.0132x elapsed=0:01:01.74    \nframe=  100 fps=1.6 q=48.2 size=       0KiB time=00:00:00.81 bitrate=   0.4kbits/s speed=0.0131x elapsed=0:01:02.26    \nframe=  100 fps=1.6 q=48.2 size=       0KiB time=00:00:00.81 bitrate=   0.4kbits/s speed=0.013x elapsed=0:01:02.78    \nframe=  101 fps=1.6 q=50.0 size=       0KiB time=00:00:00.82 bitrate=   0.4kbits/s speed=0.013x elapsed=0:01:03.40    \nframe=  102 fps=1.6 q=49.9 size=       0KiB time=00:00:00.83 bitrate=   0.4kbits/s speed=0.013x elapsed=0:01:03.96    \nframe=  102 fps=1.6 q=49.9 size=       0KiB time=00:00:00.83 bitrate=   0.4kbits/s speed=0.0129x elapsed=0:01:04.50    \nframe=  102 fps=1.6 q=49.9 size=       0KiB time=00:00:00.83 bitrate=   0.4kbits/s speed=0.0128x elapsed=0:01:05.09    \nframe=  103 fps=1.6 q=44.8 size=       0KiB time=00:00:00.84 bitrate=   0.4kbits/s speed=0.0128x elapsed=0:01:05.62    \nframe=  104 fps=1.6 q=48.1 size=       0KiB time=00:00:00.85 bitrate=   0.4kbits/s speed=0.0128x elapsed=0:01:06.18    \nframe=  104 fps=1.6 q=48.1 size=       0KiB time=00:00:00.85 bitrate=   0.4kbits/s speed=0.0127x elapsed=0:01:06.75    \nframe=  104 fps=1.5 q=48.1 size=       0KiB time=00:00:00.85 bitrate=   0.4kbits/s speed=0.0126x elapsed=0:01:07.29    \nframe=  105 fps=1.5 q=49.8 size=       0KiB time=00:00:00.85 bitrate=   0.4kbits/s speed=0.0126x elapsed=0:01:07.87    \nframe=  106 fps=1.5 q=50.0 size=       0KiB time=00:00:00.86 bitrate=   0.4kbits/s speed=0.0127x elapsed=0:01:08.40    \nframe=  106 fps=1.5 q=50.0 size=       0KiB time=00:00:00.86 bitrate=   0.4kbits/s speed=0.0126x elapsed=0:01:08.96    \nframe=  106 fps=1.5 q=50.0 size=       0KiB time=00:00:00.86 bitrate=   0.4kbits/s speed=0.0125x elapsed=0:01:09.53    \nframe=  108 fps=1.5 q=48.4 size=       0KiB time=00:00:00.88 bitrate=   0.4kbits/s speed=0.0126x elapsed=0:01:10.08    \nframe=  108 fps=1.5 q=48.4 size=       0KiB time=00:00:00.88 bitrate=   0.4kbits/s speed=0.0125x elapsed=0:01:10.61    \nframe=  109 fps=1.5 q=50.0 size=       0KiB time=00:00:00.89 bitrate=   0.4kbits/s speed=0.0125x elapsed=0:01:11.12    \nframe=  110 fps=1.5 q=50.0 size=       0KiB time=00:00:00.90 bitrate=   0.4kbits/s speed=0.0126x elapsed=0:01:11.63    \nframe=  112 fps=1.6 q=48.3 size=       0KiB time=00:00:00.91 bitrate=   0.4kbits/s speed=0.0127x elapsed=0:01:12.17    \nframe=  112 fps=1.5 q=48.3 size=       0KiB time=00:00:00.91 bitrate=   0.4kbits/s speed=0.0126x elapsed=0:01:12.68    \nframe=  114 fps=1.6 q=50.0 size=       0KiB time=00:00:00.93 bitrate=   0.4kbits/s speed=0.0128x elapsed=0:01:13.20    \nframe=  114 fps=1.5 q=50.0 size=       0KiB time=00:00:00.93 bitrate=   0.4kbits/s speed=0.0127x elapsed=0:01:13.73    \nframe=  116 fps=1.6 q=48.3 size=       0KiB time=00:00:00.95 bitrate=   0.4kbits/s speed=0.0128x elapsed=0:01:14.26    \nframe=  116 fps=1.6 q=48.3 size=       0KiB time=00:00:00.95 bitrate=   0.4kbits/s speed=0.0127x elapsed=0:01:14.78    \nframe=  117 fps=1.6 q=49.9 size=       0KiB time=00:00:00.95 bitrate=   0.4kbits/s speed=0.0127x elapsed=0:01:15.29    \nframe=  118 fps=1.6 q=50.0 size=       0KiB time=00:00:00.96 bitrate=   0.4kbits/s speed=0.0127x elapsed=0:01:15.82    \nframe=  119 fps=1.6 q=45.0 size=       0KiB time=00:00:00.97 bitrate=   0.4kbits/s speed=0.0128x elapsed=0:01:16.35    \nframe=  120 fps=1.6 q=48.2 size=       0KiB time=00:00:00.98 bitrate=   0.4kbits/s speed=0.0128x elapsed=0:01:16.88    \nframe=  121 fps=1.6 q=49.9 size=       0KiB time=00:00:00.99 bitrate=   0.4kbits/s speed=0.0128x elapsed=0:01:17.44    \nframe=  121 fps=1.6 q=49.9 size=       0KiB time=00:00:00.99 bitrate=   0.4kbits/s speed=0.0127x elapsed=0:01:18.01    \nframe=  122 fps=1.6 q=49.8 size=       0KiB time=00:00:01.00 bitrate=   0.4kbits/s speed=0.0127x elapsed=0:01:18.56    \nframe=  122 fps=1.5 q=49.8 size=       0KiB time=00:00:01.00 bitrate=   0.4kbits/s speed=0.0126x elapsed=0:01:19.10    \nframe=  122 fps=1.5 q=49.8 size=       0KiB time=00:00:01.00 bitrate=   0.4kbits/s speed=0.0125x elapsed=0:01:19.71    \nframe=  123 fps=1.5 q=45.0 size=       0KiB time=00:00:01.00 bitrate=   0.3kbits/s speed=0.0126x elapsed=0:01:20.24    \nframe=  124 fps=1.5 q=48.2 size=       0KiB time=00:00:01.01 bitrate=   0.3kbits/s speed=0.0126x elapsed=0:01:20.77    \nframe=  124 fps=1.5 q=48.2 size=       0KiB time=00:00:01.01 bitrate=   0.3kbits/s speed=0.0125x elapsed=0:01:21.33    \nframe=  124 fps=1.5 q=48.2 size=       0KiB time=00:00:01.01 bitrate=   0.3kbits/s speed=0.0124x elapsed=0:01:21.86    \nframe=  126 fps=1.5 q=49.9 size=       0KiB time=00:00:01.03 bitrate=   0.3kbits/s speed=0.0125x elapsed=0:01:22.41    \nframe=  127 fps=1.5 q=45.0 size=       0KiB time=00:00:01.04 bitrate=   0.3kbits/s speed=0.0126x elapsed=0:01:22.95    \nframe=  127 fps=1.5 q=45.0 size=       0KiB time=00:00:01.04 bitrate=   0.3kbits/s speed=0.0125x elapsed=0:01:23.50    \nframe=  128 fps=1.5 q=48.0 size=       0KiB time=00:00:01.05 bitrate=   0.3kbits/s speed=0.0125x elapsed=0:01:24.04    \nframe=  128 fps=1.5 q=48.0 size=       0KiB time=00:00:01.05 bitrate=   0.3kbits/s speed=0.0124x elapsed=0:01:24.60    \nframe=  128 fps=1.5 q=48.0 size=       0KiB time=00:00:01.05 bitrate=   0.3kbits/s speed=0.0123x elapsed=0:01:25.18    \nframe=  128 fps=1.5 q=48.0 size=       0KiB time=00:00:01.05 bitrate=   0.3kbits/s speed=0.0122x elapsed=0:01:25.72    \nframe=  129 fps=1.5 q=49.8 size=       0KiB time=00:00:01.05 bitrate=   0.3kbits/s speed=0.0123x elapsed=0:01:26.27    \nframe=  129 fps=1.5 q=49.8 size=       0KiB time=00:00:01.05 bitrate=   0.3kbits/s speed=0.0122x elapsed=0:01:26.82    \nframe=  130 fps=1.5 q=49.8 size=       0KiB time=00:00:01.05 bitrate=   0.3kbits/s speed=0.0121x elapsed=0:01:27.35    \nframe=  130 fps=1.5 q=49.8 size=       0KiB time=00:00:01.06 bitrate=   0.3kbits/s speed=0.0121x elapsed=0:01:27.99    \nframe=  132 fps=1.5 q=48.3 size=       0KiB time=00:00:01.07 bitrate=   0.3kbits/s speed=0.0121x elapsed=0:01:28.54    \nframe=  132 fps=1.5 q=48.3 size=       0KiB time=00:00:01.08 bitrate=   0.3kbits/s speed=0.0122x elapsed=0:01:29.08    \nframe=  133 fps=1.5 q=49.9 size=       0KiB time=00:00:01.09 bitrate=   0.3kbits/s speed=0.0122x elapsed=0:01:29.64    \nframe=  133 fps=1.5 q=49.9 size=       0KiB time=00:00:01.09 bitrate=   0.3kbits/s speed=0.0121x elapsed=0:01:30.23    \nframe=  133 fps=1.5 q=49.9 size=       0KiB time=00:00:01.09 bitrate=   0.3kbits/s speed=0.012x elapsed=0:01:30.77    \nframe=  134 fps=1.5 q=49.9 size=       0KiB time=00:00:01.10 bitrate=   0.3kbits/s speed=0.012x elapsed=0:01:31.37    \nframe=  134 fps=1.5 q=49.9 size=       0KiB time=00:00:01.10 bitrate=   0.3kbits/s speed=0.012x elapsed=0:01:31.98    \nframe=  135 fps=1.5 q=45.1 size=       0KiB time=00:00:01.10 bitrate=   0.3kbits/s speed=0.012x elapsed=0:01:32.59    \nframe=  135 fps=1.4 q=45.1 size=       0KiB time=00:00:01.10 bitrate=   0.3kbits/s speed=0.0119x elapsed=0:01:33.17    \nframe=  136 fps=1.5 q=47.9 size=       0KiB time=00:00:01.11 bitrate=   0.3kbits/s speed=0.0119x elapsed=0:01:33.74    \nframe=  136 fps=1.4 q=47.9 size=       0KiB time=00:00:01.11 bitrate=   0.3kbits/s speed=0.0118x elapsed=0:01:34.30    \nframe=  137 fps=1.4 q=49.9 size=       0KiB time=00:00:01.12 bitrate=   0.3kbits/s speed=0.0119x elapsed=0:01:34.85    \nframe=  138 fps=1.4 q=49.9 size=       0KiB time=00:00:01.13 bitrate=   0.3kbits/s speed=0.0119x elapsed=0:01:35.40    \nframe=  138 fps=1.4 q=49.9 size=       0KiB time=00:00:01.13 bitrate=   0.3kbits/s speed=0.0118x elapsed=0:01:35.91    \nframe=  138 fps=1.4 q=49.9 size=       0KiB time=00:00:01.13 bitrate=   0.3kbits/s speed=0.0118x elapsed=0:01:36.44    \nframe=  139 fps=1.4 q=45.5 size=       0KiB time=00:00:01.14 bitrate=   0.3kbits/s speed=0.0118x elapsed=0:01:36.98    \nframe=  140 fps=1.4 q=48.4 size=       0KiB time=00:00:01.15 bitrate=   0.3kbits/s speed=0.0118x elapsed=0:01:37.51    \nframe=  140 fps=1.4 q=48.4 size=       0KiB time=00:00:01.15 bitrate=   0.3kbits/s speed=0.0117x elapsed=0:01:38.02    \nframe=  141 fps=1.4 q=50.0 size=       0KiB time=00:00:01.15 bitrate=   0.3kbits/s speed=0.0118x elapsed=0:01:38.55    \nframe=  142 fps=1.4 q=50.1 size=       0KiB time=00:00:01.16 bitrate=   0.3kbits/s speed=0.0118x elapsed=0:01:39.11    \nframe=  143 fps=1.4 q=45.1 size=       0KiB time=00:00:01.17 bitrate=   0.3kbits/s speed=0.0118x elapsed=0:01:39.62    \nframe=  145 fps=1.4 q=49.8 size=       0KiB time=00:00:01.19 bitrate=   0.3kbits/s speed=0.0119x elapsed=0:01:40.14    \nframe=  145 fps=1.4 q=49.8 size=       0KiB time=00:00:01.19 bitrate=   0.3kbits/s speed=0.0118x elapsed=0:01:40.68    \nframe=  147 fps=1.5 q=45.2 size=       0KiB time=00:00:01.20 bitrate=   0.3kbits/s speed=0.0119x elapsed=0:01:41.22    \nframe=  148 fps=1.5 q=48.5 size=       0KiB time=00:00:01.21 bitrate=   0.3kbits/s speed=0.012x elapsed=0:01:41.76    \nframe=  148 fps=1.4 q=48.5 size=       0KiB time=00:00:01.21 bitrate=   0.3kbits/s speed=0.0119x elapsed=0:01:42.28    \nframe=  149 fps=1.4 q=49.9 size=       0KiB time=00:00:01.22 bitrate=   0.3kbits/s speed=0.0119x elapsed=0:01:42.81    \nframe=  150 fps=1.5 q=50.0 size=       0KiB time=00:00:01.23 bitrate=   0.3kbits/s speed=0.0119x elapsed=0:01:43.33    \nframe=  150 fps=1.4 q=50.0 size=       0KiB time=00:00:01.23 bitrate=   0.3kbits/s speed=0.0119x elapsed=0:01:43.86    \nframe=  150 fps=1.4 q=50.0 size=       0KiB time=00:00:01.23 bitrate=   0.3kbits/s speed=0.0118x elapsed=0:01:44.39    \nframe=  151 fps=1.4 q=44.7 size=       0KiB time=00:00:01.24 bitrate=   0.3kbits/s speed=0.0118x elapsed=0:01:44.89    \nframe=  152 fps=1.4 q=48.2 size=       0KiB time=00:00:01.25 bitrate=   0.3kbits/s speed=0.0119x elapsed=0:01:45.41    \nframe=  153 fps=1.4 q=50.0 size=       0KiB time=00:00:01.25 bitrate=   0.3kbits/s speed=0.0119x elapsed=0:01:45.93    \nframe=  154 fps=1.4 q=49.9 size=       0KiB time=00:00:01.26 bitrate=   0.3kbits/s speed=0.0119x elapsed=0:01:46.46    \nframe=  156 fps=1.5 q=48.3 size=       0KiB time=00:00:01.28 bitrate=   0.3kbits/s speed=0.012x elapsed=0:01:47.00    \nframe=  156 fps=1.5 q=48.3 size=       0KiB time=00:00:01.28 bitrate=   0.3kbits/s speed=0.0119x elapsed=0:01:47.52    \nframe=  157 fps=1.5 q=50.0 size=       0KiB time=00:00:01.29 bitrate=   0.3kbits/s speed=0.012x elapsed=0:01:48.05    \nframe=  158 fps=1.5 q=50.1 size=       0KiB time=00:00:01.30 bitrate=   0.3kbits/s speed=0.012x elapsed=0:01:48.57    \nframe=  158 fps=1.4 q=50.1 size=       0KiB time=00:00:01.30 bitrate=   0.3kbits/s speed=0.0119x elapsed=0:01:49.11    \nframe=  158 fps=1.4 q=50.1 size=       0KiB time=00:00:01.30 bitrate=   0.3kbits/s speed=0.0119x elapsed=0:01:49.65    \nframe=  159 fps=1.4 q=44.8 size=       0KiB time=00:00:01.30 bitrate=   0.3kbits/s speed=0.0119x elapsed=0:01:50.18    \nframe=  159 fps=1.4 q=44.8 size=       0KiB time=00:00:01.30 bitrate=   0.3kbits/s speed=0.0118x elapsed=0:01:50.73    \nframe=  160 fps=1.4 q=48.6 size=       0KiB time=00:00:01.31 bitrate=   0.3kbits/s speed=0.0118x elapsed=0:01:51.25    \nframe=  161 fps=1.4 q=50.0 size=       0KiB time=00:00:01.32 bitrate=   0.3kbits/s speed=0.0119x elapsed=0:01:51.81    \nframe=  162 fps=1.4 q=50.0 size=       0KiB time=00:00:01.33 bitrate=   0.3kbits/s speed=0.0119x elapsed=0:01:52.34    \nframe=  163 fps=1.4 q=45.0 size=       0KiB time=00:00:01.34 bitrate=   0.3kbits/s speed=0.0119x elapsed=0:01:52.85    \nframe=  164 fps=1.4 q=48.5 size=       0KiB time=00:00:01.35 bitrate=   0.3kbits/s speed=0.0119x elapsed=0:01:53.37    \nframe=  164 fps=1.4 q=48.5 size=       0KiB time=00:00:01.35 bitrate=   0.3kbits/s speed=0.0119x elapsed=0:01:53.90    \nframe=  166 fps=1.5 q=50.1 size=       0KiB time=00:00:01.36 bitrate=   0.3kbits/s speed=0.0119x elapsed=0:01:54.45    \nframe=  168 fps=1.5 q=48.5 size=       0KiB time=00:00:01.38 bitrate=   0.3kbits/s speed=0.012x elapsed=0:01:55.01    \nframe=  169 fps=1.5 q=50.0 size=       0KiB time=00:00:01.39 bitrate=   0.3kbits/s speed=0.012x elapsed=0:01:55.54    \nframe=  169 fps=1.5 q=50.0 size=       0KiB time=00:00:01.39 bitrate=   0.3kbits/s speed=0.012x elapsed=0:01:56.05    \nframe=  170 fps=1.5 q=50.1 size=       0KiB time=00:00:01.40 bitrate=   0.3kbits/s speed=0.012x elapsed=0:01:56.57    \nframe=  172 fps=1.5 q=48.6 size=       0KiB time=00:00:01.41 bitrate=   0.2kbits/s speed=0.0121x elapsed=0:01:57.10    \nframe=  172 fps=1.5 q=48.6 size=       0KiB time=00:00:01.41 bitrate=   0.2kbits/s speed=0.012x elapsed=0:01:57.65    \nframe=  173 fps=1.5 q=50.1 size=     256KiB time=00:00:01.42 bitrate=1471.9kbits/s speed=0.0121x elapsed=0:01:58.18    \nframe=  174 fps=1.5 q=50.0 size=     256KiB time=00:00:01.43 bitrate=1463.4kbits/s speed=0.0121x elapsed=0:01:58.72    \nframe=  175 fps=1.5 q=45.4 size=     256KiB time=00:00:01.44 bitrate=1454.9kbits/s speed=0.0121x elapsed=0:01:59.24    \nframe=  177 fps=1.5 q=50.0 size=     256KiB time=00:00:01.45 bitrate=1438.3kbits/s speed=0.0122x elapsed=0:01:59.77    \nframe=  177 fps=1.5 q=50.0 size=     256KiB time=00:00:01.45 bitrate=1438.3kbits/s speed=0.0121x elapsed=0:02:00.32    \nframe=  177 fps=1.5 q=50.0 size=     256KiB time=00:00:01.45 bitrate=1438.3kbits/s speed=0.0121x elapsed=0:02:00.85    \nframe=  179 fps=1.5 q=45.4 size=     256KiB time=00:00:01.47 bitrate=1422.0kbits/s speed=0.0122x elapsed=0:02:01.39    \nframe=  179 fps=1.5 q=45.4 size=     256KiB time=00:00:01.47 bitrate=1422.0kbits/s speed=0.0121x elapsed=0:02:01.90    \nframe=  180 fps=1.5 q=48.3 size=     256KiB time=00:00:01.48 bitrate=1414.0kbits/s speed=0.0121x elapsed=0:02:02.42    \nframe=  181 fps=1.5 q=50.1 size=     256KiB time=00:00:01.49 bitrate=1406.1kbits/s speed=0.0121x elapsed=0:02:02.93    \nframe=  182 fps=1.5 q=50.0 size=     256KiB time=00:00:01.50 bitrate=1398.3kbits/s speed=0.0122x elapsed=0:02:03.45    \nframe=  183 fps=1.5 q=45.4 size=     256KiB time=00:00:01.50 bitrate=1390.6kbits/s speed=0.0122x elapsed=0:02:03.97    \nframe=  184 fps=1.5 q=48.3 size=     256KiB time=00:00:01.51 bitrate=1383.0kbits/s speed=0.0122x elapsed=0:02:04.49    \nframe=  185 fps=1.5 q=50.1 size=     256KiB time=00:00:01.52 bitrate=1375.4kbits/s speed=0.0122x elapsed=0:02:05.01    \nframe=  186 fps=1.5 q=50.0 size=     256KiB time=00:00:01.53 bitrate=1367.9kbits/s speed=0.0122x elapsed=0:02:05.52    \nframe=  186 fps=1.5 q=50.0 size=     256KiB time=00:00:01.53 bitrate=1367.9kbits/s speed=0.0122x elapsed=0:02:06.04    \nframe=  187 fps=1.5 q=45.3 size=     256KiB time=00:00:01.54 bitrate=1360.5kbits/s speed=0.0122x elapsed=0:02:06.56    \nframe=  188 fps=1.5 q=48.5 size=     256KiB time=00:00:01.55 bitrate=1353.2kbits/s speed=0.0122x elapsed=0:02:07.09    \nframe=  189 fps=1.5 q=50.0 size=     256KiB time=00:00:01.55 bitrate=1346.0kbits/s speed=0.0122x elapsed=0:02:07.63    \nframe=  189 fps=1.5 q=50.0 size=     256KiB time=00:00:01.55 bitrate=1346.0kbits/s speed=0.0122x elapsed=0:02:08.16    \nframe=  190 fps=1.5 q=50.0 size=     256KiB time=00:00:01.56 bitrate=1338.8kbits/s speed=0.0122x elapsed=0:02:08.69    \nframe=  192 fps=1.5 q=48.3 size=     256KiB time=00:00:01.58 bitrate=1324.7kbits/s speed=0.0123x elapsed=0:02:09.21    \nframe=  193 fps=1.5 q=50.0 size=     256KiB time=00:00:01.59 bitrate=1317.8kbits/s speed=0.0123x elapsed=0:02:09.73    \nframe=  193 fps=1.5 q=50.0 size=     256KiB time=00:00:01.59 bitrate=1317.8kbits/s speed=0.0122x elapsed=0:02:10.28    \nframe=  194 fps=1.5 q=51.0 size=     256KiB time=00:00:01.60 bitrate=1310.9kbits/s speed=0.0122x elapsed=0:02:10.79    \nframe=  195 fps=1.5 q=45.3 size=     256KiB time=00:00:01.60 bitrate=1304.1kbits/s speed=0.0122x elapsed=0:02:11.32    \nframe=  196 fps=1.5 q=48.5 size=     256KiB time=00:00:01.61 bitrate=1297.4kbits/s speed=0.0123x elapsed=0:02:11.87    \nframe=  197 fps=1.5 q=49.9 size=     256KiB time=00:00:01.62 bitrate=1290.8kbits/s speed=0.0123x elapsed=0:02:12.39    \nframe=  197 fps=1.5 q=49.9 size=     256KiB time=00:00:01.62 bitrate=1290.8kbits/s speed=0.0122x elapsed=0:02:12.93    \nframe=  198 fps=1.5 q=51.0 size=     256KiB time=00:00:01.63 bitrate=1284.2kbits/s speed=0.0122x elapsed=0:02:13.46    \nframe=  199 fps=1.5 q=45.0 size=     256KiB time=00:00:01.64 bitrate=1277.7kbits/s speed=0.0123x elapsed=0:02:13.97    \nframe=  201 fps=1.5 q=50.8 size=     256KiB time=00:00:01.65 bitrate=1271.2kbits/s speed=0.0123x elapsed=0:02:14.49    \nframe=  201 fps=1.5 q=50.8 size=     256KiB time=00:00:01.65 bitrate=1264.8kbits/s speed=0.0123x elapsed=0:02:15.02    \nframe=  201 fps=1.5 q=50.8 size=     256KiB time=00:00:01.65 bitrate=1264.8kbits/s speed=0.0122x elapsed=0:02:15.54    \nframe=  202 fps=1.5 q=51.0 size=     256KiB time=00:00:01.66 bitrate=1258.5kbits/s speed=0.0122x elapsed=0:02:16.05    \nframe=  203 fps=1.5 q=45.4 size=     256KiB time=00:00:01.67 bitrate=1252.2kbits/s speed=0.0123x elapsed=0:02:16.59    \nframe=  204 fps=1.5 q=48.6 size=     256KiB time=00:00:01.68 bitrate=1246.0kbits/s speed=0.0123x elapsed=0:02:17.10    \nframe=  205 fps=1.5 q=51.0 size=     256KiB time=00:00:01.69 bitrate=1239.9kbits/s speed=0.0123x elapsed=0:02:17.61    \nframe=  206 fps=1.5 q=51.0 size=     256KiB time=00:00:01.70 bitrate=1233.8kbits/s speed=0.0123x elapsed=0:02:18.13    \nframe=  206 fps=1.5 q=51.0 size=     256KiB time=00:00:01.70 bitrate=1233.8kbits/s speed=0.0123x elapsed=0:02:18.66    \nframe=  207 fps=1.5 q=45.4 size=     256KiB time=00:00:01.70 bitrate=1227.8kbits/s speed=0.0123x elapsed=0:02:19.18    \nframe=  208 fps=1.5 q=49.2 size=     256KiB time=00:00:01.71 bitrate=1221.8kbits/s speed=0.0123x elapsed=0:02:19.70    \nframe=  209 fps=1.5 q=51.0 size=     256KiB time=00:00:01.72 bitrate=1215.9kbits/s speed=0.0123x elapsed=0:02:20.24    \nframe=  210 fps=1.5 q=51.0 size=     256KiB time=00:00:01.73 bitrate=1210.1kbits/s speed=0.0123x elapsed=0:02:20.76    \nframe=  211 fps=1.5 q=45.7 size=     256KiB time=00:00:01.74 bitrate=1204.3kbits/s speed=0.0123x elapsed=0:02:21.30    \nframe=  212 fps=1.5 q=49.6 size=     256KiB time=00:00:01.75 bitrate=1198.6kbits/s speed=0.0123x elapsed=0:02:21.82    \nframe=  212 fps=1.5 q=49.6 size=     256KiB time=00:00:01.75 bitrate=1198.6kbits/s speed=0.0123x elapsed=0:02:22.35    \nframe=  213 fps=1.5 q=50.9 size=     256KiB time=00:00:01.75 bitrate=1192.9kbits/s speed=0.0123x elapsed=0:02:22.89    \nframe=  214 fps=1.5 q=51.0 size=     256KiB time=00:00:01.76 bitrate=1187.3kbits/s speed=0.0123x elapsed=0:02:23.45    \nframe=  215 fps=1.5 q=46.0 size=     256KiB time=00:00:01.77 bitrate=1181.7kbits/s speed=0.0123x elapsed=0:02:23.96    \nframe=  216 fps=1.5 q=49.2 size=     256KiB time=00:00:01.78 bitrate=1176.2kbits/s speed=0.0123x elapsed=0:02:24.50    \nframe=  216 fps=1.5 q=49.2 size=     256KiB time=00:00:01.78 bitrate=1176.2kbits/s speed=0.0123x elapsed=0:02:25.04    \nframe=  217 fps=1.5 q=51.0 size=     256KiB time=00:00:01.79 bitrate=1170.7kbits/s speed=0.0123x elapsed=0:02:25.55    \nframe=  217 fps=1.5 q=51.0 size=     256KiB time=00:00:01.79 bitrate=1170.7kbits/s speed=0.0123x elapsed=0:02:26.07    \nframe=  218 fps=1.5 q=51.0 size=     256KiB time=00:00:01.80 bitrate=1165.3kbits/s speed=0.0123x elapsed=0:02:26.61    \nframe=  220 fps=1.5 q=49.2 size=     256KiB time=00:00:01.81 bitrate=1154.6kbits/s speed=0.0123x elapsed=0:02:27.14    \nframe=  220 fps=1.5 q=49.2 size=     256KiB time=00:00:01.81 bitrate=1154.6kbits/s speed=0.0123x elapsed=0:02:27.67    \nframe=  221 fps=1.5 q=51.0 size=     256KiB time=00:00:01.82 bitrate=1149.3kbits/s speed=0.0123x elapsed=0:02:28.18    \nframe=  222 fps=1.5 q=51.0 size=     256KiB time=00:00:01.83 bitrate=1144.1kbits/s speed=0.0123x elapsed=0:02:28.70    \nframe=  222 fps=1.5 q=51.0 size=     256KiB time=00:00:01.83 bitrate=1144.1kbits/s speed=0.0123x elapsed=0:02:29.21    \nframe=  223 fps=1.5 q=45.5 size=     256KiB time=00:00:01.84 bitrate=1138.9kbits/s speed=0.0123x elapsed=0:02:29.77    \nframe=  224 fps=1.5 q=48.9 size=     256KiB time=00:00:01.85 bitrate=1133.8kbits/s speed=0.0123x elapsed=0:02:30.30    \nframe=  224 fps=1.5 q=48.9 size=     256KiB time=00:00:01.85 bitrate=1133.8kbits/s speed=0.0123x elapsed=0:02:30.82    \nframe=  225 fps=1.5 q=50.9 size=     256KiB time=00:00:01.85 bitrate=1128.7kbits/s speed=0.0123x elapsed=0:02:31.35    \nframe=  226 fps=1.5 q=51.0 size=     256KiB time=00:00:01.86 bitrate=1123.7kbits/s speed=0.0123x elapsed=0:02:31.85    \nframe=  226 fps=1.5 q=51.0 size=     256KiB time=00:00:01.86 bitrate=1123.7kbits/s speed=0.0122x elapsed=0:02:32.40    \nframe=  227 fps=1.5 q=45.6 size=     256KiB time=00:00:01.87 bitrate=1118.7kbits/s speed=0.0123x elapsed=0:02:32.91    \nframe=  228 fps=1.5 q=49.2 size=     256KiB time=00:00:01.88 bitrate=1113.7kbits/s speed=0.0123x elapsed=0:02:33.45    \nframe=  228 fps=1.5 q=49.2 size=     256KiB time=00:00:01.88 bitrate=1113.7kbits/s speed=0.0122x elapsed=0:02:33.98    \nframe=  229 fps=1.5 q=51.0 size=     256KiB time=00:00:01.89 bitrate=1108.8kbits/s speed=0.0122x elapsed=0:02:34.50    \nframe=  230 fps=1.5 q=51.0 size=     256KiB time=00:00:01.90 bitrate=1103.9kbits/s speed=0.0123x elapsed=0:02:35.03    \nframe=  231 fps=1.5 q=45.5 size=     256KiB time=00:00:01.90 bitrate=1099.1kbits/s speed=0.0123x elapsed=0:02:35.55    \nframe=  232 fps=1.5 q=49.2 size=     256KiB time=00:00:01.91 bitrate=1094.3kbits/s speed=0.0123x elapsed=0:02:36.07    \nframe=  232 fps=1.5 q=49.2 size=     256KiB time=00:00:01.91 bitrate=1094.3kbits/s speed=0.0122x elapsed=0:02:36.59    \nframe=  234 fps=1.5 q=51.0 size=     256KiB time=00:00:01.93 bitrate=1084.9kbits/s speed=0.0123x elapsed=0:02:37.11    \nframe=  234 fps=1.5 q=51.0 size=     256KiB time=00:00:01.93 bitrate=1084.9kbits/s speed=0.0123x elapsed=0:02:37.64    \nframe=  234 fps=1.5 q=51.0 size=     256KiB time=00:00:01.93 bitrate=1084.9kbits/s speed=0.0122x elapsed=0:02:38.18    \nframe=  236 fps=1.5 q=49.4 size=     256KiB time=00:00:01.95 bitrate=1075.6kbits/s speed=0.0123x elapsed=0:02:38.71    \nframe=  236 fps=1.5 q=49.4 size=     256KiB time=00:00:01.95 bitrate=1075.6kbits/s speed=0.0122x elapsed=0:02:39.22    \nframe=  237 fps=1.5 q=51.0 size=     256KiB time=00:00:01.95 bitrate=1071.1kbits/s speed=0.0123x elapsed=0:02:39.75    \nframe=  237 fps=1.5 q=51.0 size=     256KiB time=00:00:01.95 bitrate=1071.1kbits/s speed=0.0122x elapsed=0:02:40.28    \nframe=  238 fps=1.5 q=51.0 size=     256KiB time=00:00:01.96 bitrate=1066.5kbits/s speed=0.0122x elapsed=0:02:40.79    \nframe=  240 fps=1.5 q=49.0 size=     256KiB time=00:00:01.98 bitrate=1057.6kbits/s speed=0.0123x elapsed=0:02:41.33    \nframe=  242 fps=1.5 q=51.0 size=     256KiB time=00:00:02.00 bitrate=1048.8kbits/s speed=0.0124x elapsed=0:02:41.88    \nframe=  242 fps=1.5 q=51.0 size=     256KiB time=00:00:02.00 bitrate=1048.8kbits/s speed=0.0123x elapsed=0:02:42.40    \nframe=  242 fps=1.5 q=51.0 size=     256KiB time=00:00:02.00 bitrate=1048.8kbits/s speed=0.0123x elapsed=0:02:42.95    \nframe=  242 fps=1.5 q=51.0 size=     256KiB time=00:00:02.00 bitrate=1048.8kbits/s speed=0.0122x elapsed=0:02:43.46    \nframe=  244 fps=1.5 q=49.3 size=     256KiB time=00:00:02.01 bitrate=1040.1kbits/s speed=0.0123x elapsed=0:02:43.98    \nframe=  246 fps=1.5 q=50.9 size=     256KiB time=00:00:02.03 bitrate=1031.6kbits/s speed=0.0124x elapsed=0:02:44.49    \nframe=  246 fps=1.5 q=50.9 size=     256KiB time=00:00:02.03 bitrate=1031.6kbits/s speed=0.0123x elapsed=0:02:45.02    \nframe=  247 fps=1.5 q=46.2 size=     256KiB time=00:00:02.04 bitrate=1027.3kbits/s speed=0.0123x elapsed=0:02:45.54    \nframe=  248 fps=1.5 q=49.4 size=     256KiB time=00:00:02.05 bitrate=1023.2kbits/s speed=0.0123x elapsed=0:02:46.06    \nframe=  249 fps=1.5 q=50.9 size=     256KiB time=00:00:02.05 bitrate=1019.0kbits/s speed=0.0124x elapsed=0:02:46.57    \nframe=  250 fps=1.5 q=51.0 size=     256KiB time=00:00:02.06 bitrate=1014.9kbits/s speed=0.0124x elapsed=0:02:47.11    \nframe=  250 fps=1.5 q=51.0 size=     256KiB time=00:00:02.06 bitrate=1014.9kbits/s speed=0.0123x elapsed=0:02:47.65    \nframe=  251 fps=1.5 q=43.0 size=     256KiB time=00:00:02.07 bitrate=1010.8kbits/s speed=0.0123x elapsed=0:02:48.17    \nframe=  252 fps=1.5 q=45.9 size=     256KiB time=00:00:02.08 bitrate=1006.8kbits/s speed=0.0123x elapsed=0:02:48.69    \nframe=  255 fps=1.5 q=50.9 size=     256KiB time=00:00:02.10 bitrate= 994.9kbits/s speed=0.0125x elapsed=0:02:49.21    \nframe=  256 fps=1.5 q=51.0 size=     256KiB time=00:00:02.11 bitrate= 990.9kbits/s speed=0.0125x elapsed=0:02:49.74    \nframe=  256 fps=1.5 q=51.0 size=     256KiB time=00:00:02.11 bitrate= 990.9kbits/s speed=0.0124x elapsed=0:02:50.26    \nframe=  257 fps=1.5 q=46.4 size=     256KiB time=00:00:02.12 bitrate= 987.1kbits/s speed=0.0124x elapsed=0:02:50.77    \nframe=  259 fps=1.5 q=51.0 size=     256KiB time=00:00:02.14 bitrate= 979.4kbits/s speed=0.0125x elapsed=0:02:51.31    \nframe=  260 fps=1.5 q=50.9 size=     256KiB time=00:00:02.15 bitrate= 975.6kbits/s speed=0.0125x elapsed=0:02:51.85    \nframe=  260 fps=1.5 q=50.9 size=     256KiB time=00:00:02.15 bitrate= 975.6kbits/s speed=0.0125x elapsed=0:02:52.39    \nframe=  260 fps=1.5 q=50.9 size=     256KiB time=00:00:02.15 bitrate= 975.6kbits/s speed=0.0124x elapsed=0:02:52.91    \nframe=  261 fps=1.5 q=45.9 size=     256KiB time=00:00:02.15 bitrate= 971.8kbits/s speed=0.0124x elapsed=0:02:53.43    \nframe=  261 fps=1.5 q=45.9 size=     256KiB time=00:00:02.15 bitrate= 971.8kbits/s speed=0.0124x elapsed=0:02:53.96    \nframe=  264 fps=1.5 q=50.9 size=     256KiB time=00:00:02.18 bitrate= 960.7kbits/s speed=0.0125x elapsed=0:02:54.50    \nframe=  265 fps=1.5 q=50.9 size=     256KiB time=00:00:02.18 bitrate= 960.7kbits/s speed=0.0125x elapsed=0:02:55.02    \nframe=  265 fps=1.5 q=50.9 size=     256KiB time=00:00:02.19 bitrate= 957.0kbits/s speed=0.0125x elapsed=0:02:55.57    \nframe=  267 fps=1.5 q=49.1 size=     256KiB time=00:00:02.20 bitrate= 949.8kbits/s speed=0.0125x elapsed=0:02:56.09    \nframe=  268 fps=1.5 q=50.8 size=     256KiB time=00:00:02.21 bitrate= 946.2kbits/s speed=0.0126x elapsed=0:02:56.60    \nframe=  270 fps=1.5 q=45.9 size=     256KiB time=00:00:02.22 bitrate= 942.7kbits/s speed=0.0126x elapsed=0:02:57.13    \nframe=  270 fps=1.5 q=45.9 size=     256KiB time=00:00:02.23 bitrate= 939.2kbits/s speed=0.0126x elapsed=0:02:57.66    \nframe=  271 fps=1.5 q=49.2 size=     256KiB time=00:00:02.24 bitrate= 935.7kbits/s speed=0.0126x elapsed=0:02:58.21    \nframe=  272 fps=1.5 q=50.9 size=     256KiB time=00:00:02.25 bitrate= 932.2kbits/s speed=0.0126x elapsed=0:02:58.76    \nframe=  273 fps=1.5 q=50.9 size=     256KiB time=00:00:02.25 bitrate= 928.8kbits/s speed=0.0126x elapsed=0:02:59.30    \nframe=  274 fps=1.5 q=45.9 size=     256KiB time=00:00:02.26 bitrate= 925.4kbits/s speed=0.0126x elapsed=0:02:59.81    \nframe=  276 fps=1.5 q=51.0 size=     256KiB time=00:00:02.28 bitrate= 918.6kbits/s speed=0.0127x elapsed=0:03:00.32    \nframe=  277 fps=1.5 q=51.0 size=     256KiB time=00:00:02.29 bitrate= 915.3kbits/s speed=0.0127x elapsed=0:03:00.84    \nframe=  278 fps=1.5 q=45.6 size=     256KiB time=00:00:02.30 bitrate= 912.0kbits/s speed=0.0127x elapsed=0:03:01.35    \nframe=  279 fps=1.5 q=49.1 size=     256KiB time=00:00:02.30 bitrate= 908.7kbits/s speed=0.0127x elapsed=0:03:01.87    \nframe=  281 fps=1.5 q=51.0 size=     256KiB time=00:00:02.32 bitrate= 902.2kbits/s speed=0.0127x elapsed=0:03:02.38    \nframe=  281 fps=1.5 q=51.0 size=     256KiB time=00:00:02.32 bitrate= 902.2kbits/s speed=0.0127x elapsed=0:03:02.90    \nframe=  284 fps=1.5 q=50.9 size=     256KiB time=00:00:02.35 bitrate= 892.6kbits/s speed=0.0128x elapsed=0:03:03.45    \nframe=  284 fps=1.5 q=50.9 size=     256KiB time=00:00:02.35 bitrate= 892.6kbits/s speed=0.0128x elapsed=0:03:03.99    \nframe=  284 fps=1.5 q=50.9 size=     256KiB time=00:00:02.35 bitrate= 892.6kbits/s speed=0.0127x elapsed=0:03:04.51    \nframe=  285 fps=1.5 q=50.9 size=     256KiB time=00:00:02.35 bitrate= 889.4kbits/s speed=0.0127x elapsed=0:03:05.04    \nframe=  286 fps=1.5 q=45.6 size=     256KiB time=00:00:02.36 bitrate= 886.3kbits/s speed=0.0128x elapsed=0:03:05.57    \nframe=  287 fps=1.5 q=49.4 size=     256KiB time=00:00:02.37 bitrate= 883.2kbits/s speed=0.0128x elapsed=0:03:06.09    \nframe=  288 fps=1.5 q=50.9 size=     256KiB time=00:00:02.38 bitrate= 880.1kbits/s speed=0.0128x elapsed=0:03:06.61    \nframe=  289 fps=1.5 q=51.0 size=     256KiB time=00:00:02.39 bitrate= 877.0kbits/s speed=0.0128x elapsed=0:03:07.13    \nframe=  289 fps=1.5 q=51.0 size=     256KiB time=00:00:02.39 bitrate= 877.0kbits/s speed=0.0127x elapsed=0:03:07.66    \nframe=  290 fps=1.5 q=46.2 size=     256KiB time=00:00:02.40 bitrate= 874.0kbits/s speed=0.0128x elapsed=0:03:08.21    \nframe=  291 fps=1.5 q=49.4 size=     256KiB time=00:00:02.40 bitrate= 870.9kbits/s speed=0.0128x elapsed=0:03:08.73    \nframe=  293 fps=1.5 q=51.0 size=     256KiB time=00:00:02.42 bitrate= 865.0kbits/s speed=0.0128x elapsed=0:03:09.27    \nframe=  294 fps=1.5 q=45.7 size=     256KiB time=00:00:02.43 bitrate= 862.0kbits/s speed=0.0128x elapsed=0:03:09.78    \nframe=  296 fps=1.6 q=51.0 size=     256KiB time=00:00:02.45 bitrate= 856.1kbits/s speed=0.0129x elapsed=0:03:10.30    \nframe=  297 fps=1.6 q=51.0 size=     256KiB time=00:00:02.45 bitrate= 853.2kbits/s speed=0.0129x elapsed=0:03:10.82    \nframe=  298 fps=1.6 q=46.5 size=     256KiB time=00:00:02.46 bitrate= 850.3kbits/s speed=0.0129x elapsed=0:03:11.34    \nframe=  299 fps=1.6 q=49.5 size=     256KiB time=00:00:02.47 bitrate= 847.5kbits/s speed=0.0129x elapsed=0:03:11.87    \nframe=  301 fps=1.6 q=50.9 size=     256KiB time=00:00:02.49 bitrate= 841.8kbits/s speed=0.0129x elapsed=0:03:12.41    \nframe=  301 fps=1.6 q=50.9 size=     256KiB time=00:00:02.49 bitrate= 841.8kbits/s speed=0.0129x elapsed=0:03:12.95    \nframe=  301 fps=1.6 q=50.9 size=     256KiB time=00:00:02.49 bitrate= 841.8kbits/s speed=0.0129x elapsed=0:03:13.47    \nframe=  302 fps=1.6 q=45.6 size=     256KiB time=00:00:02.50 bitrate= 839.0kbits/s speed=0.0129x elapsed=0:03:13.97    \nframe=  304 fps=1.6 q=51.0 size=     256KiB time=00:00:02.51 bitrate= 833.4kbits/s speed=0.0129x elapsed=0:03:14.49    \nframe=  305 fps=1.6 q=50.9 size=     256KiB time=00:00:02.52 bitrate= 830.7kbits/s speed=0.0129x elapsed=0:03:15.02    \nframe=  306 fps=1.6 q=45.7 size=     256KiB time=00:00:02.53 bitrate= 828.0kbits/s speed=0.013x elapsed=0:03:15.54    \nframe=  307 fps=1.6 q=49.3 size=     256KiB time=00:00:02.54 bitrate= 825.2kbits/s speed=0.013x elapsed=0:03:16.07    \nframe=  309 fps=1.6 q=50.9 size=     256KiB time=00:00:02.55 bitrate= 819.9kbits/s speed=0.013x elapsed=0:03:16.61    \nframe=  309 fps=1.6 q=50.9 size=     256KiB time=00:00:02.55 bitrate= 819.9kbits/s speed=0.013x elapsed=0:03:17.12    \nframe=  310 fps=1.6 q=45.7 size=     256KiB time=00:00:02.56 bitrate= 817.2kbits/s speed=0.013x elapsed=0:03:17.65    \nframe=  310 fps=1.6 q=45.7 size=     256KiB time=00:00:02.56 bitrate= 817.2kbits/s speed=0.013x elapsed=0:03:18.16    \nframe=  311 fps=1.6 q=49.6 size=     256KiB time=00:00:02.57 bitrate= 814.6kbits/s speed=0.013x elapsed=0:03:18.68    \nframe=  312 fps=1.6 q=50.9 size=     256KiB time=00:00:02.58 bitrate= 811.9kbits/s speed=0.013x elapsed=0:03:19.20    \nframe=  314 fps=1.6 q=45.9 size=     256KiB time=00:00:02.60 bitrate= 806.7kbits/s speed=0.013x elapsed=0:03:19.72    \nframe=  315 fps=1.6 q=49.4 size=     256KiB time=00:00:02.60 bitrate= 804.2kbits/s speed=0.013x elapsed=0:03:20.24    \nframe=  317 fps=1.6 q=51.0 size=     256KiB time=00:00:02.62 bitrate= 799.0kbits/s speed=0.0131x elapsed=0:03:20.78    \nframe=  318 fps=1.6 q=46.1 size=     256KiB time=00:00:02.63 bitrate= 796.5kbits/s speed=0.0131x elapsed=0:03:21.31    \nframe=  319 fps=1.6 q=49.3 size=     256KiB time=00:00:02.64 bitrate= 794.0kbits/s speed=0.0131x elapsed=0:03:21.84    \nframe=  321 fps=1.6 q=50.9 size=     256KiB time=00:00:02.65 bitrate= 789.0kbits/s speed=0.0131x elapsed=0:03:22.43    \nframe=  321 fps=1.6 q=50.9 size=     256KiB time=00:00:02.65 bitrate= 789.0kbits/s speed=0.0131x elapsed=0:03:22.95    \nframe=  321 fps=1.6 q=50.9 size=     256KiB time=00:00:02.65 bitrate= 789.0kbits/s speed=0.0131x elapsed=0:03:23.50    \nframe=  321 fps=1.6 q=50.9 size=     256KiB time=00:00:02.65 bitrate= 789.0kbits/s speed=0.013x elapsed=0:03:24.04    \nframe=  321 fps=1.6 q=50.9 size=     256KiB time=00:00:02.65 bitrate= 789.0kbits/s speed=0.013x elapsed=0:03:24.62    \nframe=  321 fps=1.6 q=50.9 size=     256KiB time=00:00:02.65 bitrate= 789.0kbits/s speed=0.013x elapsed=0:03:25.19    \nframe=  321 fps=1.6 q=50.9 size=     256KiB time=00:00:02.65 bitrate= 789.0kbits/s speed=0.0129x elapsed=0:03:25.74    \nframe=  321 fps=1.6 q=50.9 size=     256KiB time=00:00:02.65 bitrate= 789.0kbits/s speed=0.0129x elapsed=0:03:26.34    \nframe=  321 fps=1.6 q=50.9 size=     256KiB time=00:00:02.65 bitrate= 789.0kbits/s speed=0.0128x elapsed=0:03:26.91    \nframe=  322 fps=1.6 q=46.5 size=     256KiB time=00:00:02.66 bitrate= 786.6kbits/s speed=0.0128x elapsed=0:03:27.55    \nframe=  322 fps=1.5 q=46.5 size=     256KiB time=00:00:02.66 bitrate= 786.6kbits/s speed=0.0128x elapsed=0:03:28.14    \nframe=  322 fps=1.5 q=46.5 size=     256KiB time=00:00:02.66 bitrate= 786.6kbits/s speed=0.0128x elapsed=0:03:28.71    \nframe=  323 fps=1.5 q=49.6 size=     256KiB time=00:00:02.67 bitrate= 784.1kbits/s speed=0.0128x elapsed=0:03:29.26    \nframe=  325 fps=1.5 q=51.0 size=     256KiB time=00:00:02.69 bitrate= 779.3kbits/s speed=0.0128x elapsed=0:03:29.83    \nframe=  325 fps=1.5 q=51.0 size=     256KiB time=00:00:02.69 bitrate= 779.3kbits/s speed=0.0128x elapsed=0:03:30.37    \nframe=  325 fps=1.5 q=51.0 size=     256KiB time=00:00:02.69 bitrate= 779.3kbits/s speed=0.0128x elapsed=0:03:30.95    \nframe=  325 fps=1.5 q=51.0 size=     256KiB time=00:00:02.69 bitrate= 779.3kbits/s speed=0.0127x elapsed=0:03:31.51    \nframe=  325 fps=1.5 q=51.0 size=     256KiB time=00:00:02.69 bitrate= 779.3kbits/s speed=0.0127x elapsed=0:03:32.13    \nframe=  325 fps=1.5 q=51.0 size=     256KiB time=00:00:02.69 bitrate= 779.3kbits/s speed=0.0127x elapsed=0:03:32.71    \nframe=  325 fps=1.5 q=51.0 size=     256KiB time=00:00:02.69 bitrate= 779.3kbits/s speed=0.0126x elapsed=0:03:33.28    \nframe=  325 fps=1.5 q=51.0 size=     256KiB time=00:00:02.69 bitrate= 779.3kbits/s speed=0.0126x elapsed=0:03:33.85    \nframe=  325 fps=1.5 q=51.0 size=     256KiB time=00:00:02.69 bitrate= 779.3kbits/s speed=0.0126x elapsed=0:03:34.44    \nframe=  325 fps=1.5 q=51.0 size=     256KiB time=00:00:02.69 bitrate= 779.3kbits/s speed=0.0125x elapsed=0:03:35.00    \nframe=  326 fps=1.5 q=46.5 size=     256KiB time=00:00:02.70 bitrate= 776.9kbits/s speed=0.0125x elapsed=0:03:35.58    \nframe=  328 fps=1.5 q=50.9 size=     512KiB time=00:00:02.71 bitrate=1544.0kbits/s speed=0.0126x elapsed=0:03:36.13    \nframe=  328 fps=1.5 q=50.9 size=     512KiB time=00:00:02.71 bitrate=1544.0kbits/s speed=0.0125x elapsed=0:03:36.68    \nframe=  328 fps=1.5 q=50.9 size=     512KiB time=00:00:02.71 bitrate=1544.0kbits/s speed=0.0125x elapsed=0:03:37.24    \nframe=  328 fps=1.5 q=50.9 size=     512KiB time=00:00:02.71 bitrate=1544.0kbits/s speed=0.0125x elapsed=0:03:37.79    \nframe=  329 fps=1.5 q=51.0 size=     512KiB time=00:00:02.72 bitrate=1539.3kbits/s speed=0.0125x elapsed=0:03:38.40    \nframe=  330 fps=1.5 q=46.1 size=     512KiB time=00:00:02.73 bitrate=1534.6kbits/s speed=0.0125x elapsed=0:03:38.96    \nframe=  330 fps=1.5 q=46.1 size=     512KiB time=00:00:02.73 bitrate=1534.6kbits/s speed=0.0125x elapsed=0:03:39.51    \nframe=  331 fps=1.5 q=49.5 size=     512KiB time=00:00:02.74 bitrate=1530.0kbits/s speed=0.0125x elapsed=0:03:40.08    \nframe=  332 fps=1.5 q=51.0 size=     512KiB time=00:00:02.75 bitrate=1525.3kbits/s speed=0.0125x elapsed=0:03:40.63    \nframe=  333 fps=1.5 q=51.0 size=     512KiB time=00:00:02.75 bitrate=1520.7kbits/s speed=0.0125x elapsed=0:03:41.15    \nframe=  334 fps=1.5 q=45.8 size=     512KiB time=00:00:02.76 bitrate=1516.1kbits/s speed=0.0125x elapsed=0:03:41.68    \nframe=  334 fps=1.5 q=45.8 size=     512KiB time=00:00:02.76 bitrate=1516.1kbits/s speed=0.0125x elapsed=0:03:42.20    \nframe=  335 fps=1.5 q=49.2 size=     512KiB time=00:00:02.77 bitrate=1511.6kbits/s speed=0.0125x elapsed=0:03:42.72    \nframe=  337 fps=1.5 q=51.0 size=     512KiB time=00:00:02.79 bitrate=1502.6kbits/s speed=0.0125x elapsed=0:03:43.27    \nframe=  337 fps=1.5 q=51.0 size=     512KiB time=00:00:02.79 bitrate=1502.6kbits/s speed=0.0125x elapsed=0:03:43.79    \nframe=  338 fps=1.5 q=46.6 size=     512KiB time=00:00:02.80 bitrate=1498.1kbits/s speed=0.0125x elapsed=0:03:44.33    \nframe=  339 fps=1.5 q=49.4 size=     512KiB time=00:00:02.80 bitrate=1493.6kbits/s speed=0.0125x elapsed=0:03:44.85    \nframe=  340 fps=1.5 q=50.9 size=     512KiB time=00:00:02.81 bitrate=1489.2kbits/s speed=0.0125x elapsed=0:03:45.37    \nframe=  341 fps=1.5 q=51.0 size=     512KiB time=00:00:02.82 bitrate=1484.8kbits/s speed=0.0125x elapsed=0:03:45.92    \nframe=  342 fps=1.5 q=46.0 size=     512KiB time=00:00:02.83 bitrate=1480.5kbits/s speed=0.0125x elapsed=0:03:46.44    \nframe=  344 fps=1.5 q=51.0 size=     512KiB time=00:00:02.84 bitrate=1476.1kbits/s speed=0.0125x elapsed=0:03:46.97    \nframe=  344 fps=1.5 q=51.0 size=     512KiB time=00:00:02.85 bitrate=1471.8kbits/s speed=0.0125x elapsed=0:03:47.50    \nframe=  345 fps=1.5 q=51.0 size=     512KiB time=00:00:02.85 bitrate=1467.5kbits/s speed=0.0125x elapsed=0:03:48.03    \nframe=  346 fps=1.5 q=45.9 size=     512KiB time=00:00:02.86 bitrate=1463.3kbits/s speed=0.0125x elapsed=0:03:48.55    \nframe=  346 fps=1.5 q=45.9 size=     512KiB time=00:00:02.86 bitrate=1463.3kbits/s speed=0.0125x elapsed=0:03:49.08    \nframe=  348 fps=1.5 q=51.0 size=     512KiB time=00:00:02.88 bitrate=1454.8kbits/s speed=0.0126x elapsed=0:03:49.59    \nframe=  348 fps=1.5 q=51.0 size=     512KiB time=00:00:02.88 bitrate=1454.8kbits/s speed=0.0125x elapsed=0:03:50.13    \nframe=  350 fps=1.5 q=46.2 size=     512KiB time=00:00:02.90 bitrate=1446.4kbits/s speed=0.0126x elapsed=0:03:50.67    \nframe=  350 fps=1.5 q=46.2 size=     512KiB time=00:00:02.90 bitrate=1446.4kbits/s speed=0.0125x elapsed=0:03:51.18    \nframe=  352 fps=1.5 q=51.0 size=     512KiB time=00:00:02.91 bitrate=1438.2kbits/s speed=0.0126x elapsed=0:03:51.70    \nframe=  353 fps=1.5 q=51.0 size=     512KiB time=00:00:02.92 bitrate=1434.1kbits/s speed=0.0126x elapsed=0:03:52.26    \nframe=  353 fps=1.5 q=51.0 size=     512KiB time=00:00:02.92 bitrate=1434.1kbits/s speed=0.0126x elapsed=0:03:52.77    \nframe=  354 fps=1.5 q=46.2 size=     512KiB time=00:00:02.93 bitrate=1430.0kbits/s speed=0.0126x elapsed=0:03:53.30    \nframe=  355 fps=1.5 q=49.5 size=     512KiB time=00:00:02.94 bitrate=1425.9kbits/s speed=0.0126x elapsed=0:03:53.82    \nframe=  357 fps=1.5 q=51.0 size=     512KiB time=00:00:02.95 bitrate=1417.9kbits/s speed=0.0126x elapsed=0:03:54.35    \nframe=  357 fps=1.5 q=51.0 size=     512KiB time=00:00:02.95 bitrate=1417.9kbits/s speed=0.0126x elapsed=0:03:54.89    \nframe=  359 fps=1.5 q=49.6 size=     512KiB time=00:00:02.97 bitrate=1410.0kbits/s speed=0.0126x elapsed=0:03:55.43    \nframe=  360 fps=1.5 q=51.0 size=     512KiB time=00:00:02.98 bitrate=1406.0kbits/s speed=0.0126x elapsed=0:03:55.96    \nframe=  361 fps=1.5 q=51.0 size=     512KiB time=00:00:02.99 bitrate=1402.1kbits/s speed=0.0126x elapsed=0:03:56.50    \nframe=  363 fps=1.5 q=49.4 size=     512KiB time=00:00:03.00 bitrate=1394.3kbits/s speed=0.0127x elapsed=0:03:57.01    \nframe=  363 fps=1.5 q=49.4 size=     512KiB time=00:00:03.00 bitrate=1394.3kbits/s speed=0.0127x elapsed=0:03:57.52    \nframe=  365 fps=1.5 q=51.0 size=     512KiB time=00:00:03.02 bitrate=1386.7kbits/s speed=0.0127x elapsed=0:03:58.05    \nframe=  366 fps=1.5 q=46.1 size=     512KiB time=00:00:03.03 bitrate=1382.9kbits/s speed=0.0127x elapsed=0:03:58.64    \nframe=  367 fps=1.5 q=49.5 size=     512KiB time=00:00:03.04 bitrate=1379.1kbits/s speed=0.0127x elapsed=0:03:59.16    \nframe=  368 fps=1.5 q=51.0 size=     512KiB time=00:00:03.05 bitrate=1375.3kbits/s speed=0.0127x elapsed=0:03:59.68    \nframe=  368 fps=1.5 q=51.0 size=     512KiB time=00:00:03.05 bitrate=1375.3kbits/s speed=0.0127x elapsed=0:04:00.20    \nframe=  368 fps=1.5 q=51.0 size=     512KiB time=00:00:03.05 bitrate=1375.3kbits/s speed=0.0127x elapsed=0:04:00.74    \nframe=  369 fps=1.5 q=51.0 size=     512KiB time=00:00:03.05 bitrate=1371.5kbits/s speed=0.0127x elapsed=0:04:01.28    \nframe=  370 fps=1.5 q=46.2 size=     512KiB time=00:00:03.06 bitrate=1367.8kbits/s speed=0.0127x elapsed=0:04:01.82    \nframe=  371 fps=1.5 q=49.3 size=     512KiB time=00:00:03.07 bitrate=1364.1kbits/s speed=0.0127x elapsed=0:04:02.34    \nframe=  373 fps=1.5 q=51.0 size=     512KiB time=00:00:03.09 bitrate=1356.8kbits/s speed=0.0127x elapsed=0:04:02.85    \nframe=  373 fps=1.5 q=51.0 size=     512KiB time=00:00:03.09 bitrate=1356.8kbits/s speed=0.0127x elapsed=0:04:03.37    \nframe=  374 fps=1.5 q=46.2 size=     512KiB time=00:00:03.10 bitrate=1353.1kbits/s speed=0.0127x elapsed=0:04:03.92    \nframe=  375 fps=1.5 q=49.6 size=     512KiB time=00:00:03.10 bitrate=1349.5kbits/s speed=0.0127x elapsed=0:04:04.44    \nframe=  377 fps=1.5 q=51.0 size=     512KiB time=00:00:03.12 bitrate=1342.3kbits/s speed=0.0128x elapsed=0:04:04.96    \nframe=  378 fps=1.5 q=46.2 size=     512KiB time=00:00:03.13 bitrate=1338.7kbits/s speed=0.0128x elapsed=0:04:05.47    \nframe=  380 fps=1.5 q=51.0 size=     512KiB time=00:00:03.15 bitrate=1331.6kbits/s speed=0.0128x elapsed=0:04:05.99    \nframe=  381 fps=1.5 q=50.9 size=     512KiB time=00:00:03.15 bitrate=1328.1kbits/s speed=0.0128x elapsed=0:04:06.52    \nframe=  382 fps=1.5 q=46.4 size=     512KiB time=00:00:03.16 bitrate=1324.6kbits/s speed=0.0128x elapsed=0:04:07.03    \nframe=  383 fps=1.5 q=49.7 size=     512KiB time=00:00:03.17 bitrate=1321.2kbits/s speed=0.0128x elapsed=0:04:07.56    \nframe=  384 fps=1.5 q=51.0 size=     512KiB time=00:00:03.18 bitrate=1317.7kbits/s speed=0.0128x elapsed=0:04:08.10    \nframe=  385 fps=1.5 q=50.9 size=     512KiB time=00:00:03.19 bitrate=1314.3kbits/s speed=0.0128x elapsed=0:04:08.61    \nframe=  386 fps=1.5 q=46.0 size=     512KiB time=00:00:03.20 bitrate=1310.8kbits/s speed=0.0128x elapsed=0:04:09.16    \nframe=  388 fps=1.6 q=51.0 size=     512KiB time=00:00:03.21 bitrate=1304.0kbits/s speed=0.0129x elapsed=0:04:09.69    \nframe=  389 fps=1.6 q=51.0 size=     512KiB time=00:00:03.22 bitrate=1300.7kbits/s speed=0.0129x elapsed=0:04:10.21    \nframe=  391 fps=1.6 q=49.5 size=     512KiB time=00:00:03.24 bitrate=1294.0kbits/s speed=0.0129x elapsed=0:04:10.77    \nframe=  391 fps=1.6 q=49.5 size=     512KiB time=00:00:03.24 bitrate=1294.0kbits/s speed=0.0129x elapsed=0:04:11.28    \nframe=  393 fps=1.6 q=51.0 size=     512KiB time=00:00:03.25 bitrate=1287.4kbits/s speed=0.0129x elapsed=0:04:11.81    \nframe=  394 fps=1.6 q=46.3 size=     512KiB time=00:00:03.26 bitrate=1284.1kbits/s speed=0.0129x elapsed=0:04:12.34    \nframe=  395 fps=1.6 q=49.4 size=     512KiB time=00:00:03.26 bitrate=1284.1kbits/s speed=0.0129x elapsed=0:04:12.85    \nframe=  397 fps=1.6 q=51.0 size=     512KiB time=00:00:03.29 bitrate=1274.3kbits/s speed=0.013x elapsed=0:04:13.39    \nframe=  397 fps=1.6 q=51.0 size=     512KiB time=00:00:03.29 bitrate=1274.3kbits/s speed=0.013x elapsed=0:04:13.91    \nframe=  399 fps=1.6 q=49.7 size=     512KiB time=00:00:03.30 bitrate=1267.9kbits/s speed=0.013x elapsed=0:04:14.42    \nframe=  401 fps=1.6 q=51.0 size=     512KiB time=00:00:03.32 bitrate=1261.6kbits/s speed=0.013x elapsed=0:04:14.97    \nframe=  401 fps=1.6 q=51.0 size=     512KiB time=00:00:03.32 bitrate=1261.6kbits/s speed=0.013x elapsed=0:04:15.50    \nframe=  402 fps=1.6 q=45.9 size=     512KiB time=00:00:03.33 bitrate=1258.4kbits/s speed=0.013x elapsed=0:04:16.03    \nframe=  403 fps=1.6 q=49.7 size=     512KiB time=00:00:03.34 bitrate=1255.3kbits/s speed=0.013x elapsed=0:04:16.56    \nframe=  404 fps=1.6 q=51.0 size=     512KiB time=00:00:03.35 bitrate=1252.1kbits/s speed=0.013x elapsed=0:04:17.11    \nframe=  406 fps=1.6 q=46.2 size=     512KiB time=00:00:03.36 bitrate=1245.9kbits/s speed=0.0131x elapsed=0:04:17.66    \nframe=  407 fps=1.6 q=49.8 size=     512KiB time=00:00:03.37 bitrate=1242.9kbits/s speed=0.0131x elapsed=0:04:18.18    \nframe=  409 fps=1.6 q=51.0 size=     512KiB time=00:00:03.39 bitrate=1236.8kbits/s speed=0.0131x elapsed=0:04:18.71    \nframe=  410 fps=1.6 q=46.2 size=     512KiB time=00:00:03.40 bitrate=1233.7kbits/s speed=0.0131x elapsed=0:04:19.23    \nframe=  411 fps=1.6 q=49.8 size=     512KiB time=00:00:03.40 bitrate=1230.7kbits/s speed=0.0131x elapsed=0:04:19.74    \nframe=  413 fps=1.6 q=51.0 size=     512KiB time=00:00:03.42 bitrate=1224.7kbits/s speed=0.0132x elapsed=0:04:20.26    \nframe=  413 fps=1.6 q=51.0 size=     512KiB time=00:00:03.42 bitrate=1224.7kbits/s speed=0.0131x elapsed=0:04:20.77    \nframe=  414 fps=1.6 q=46.2 size=     512KiB time=00:00:03.43 bitrate=1221.7kbits/s speed=0.0131x elapsed=0:04:21.30    \nframe=  416 fps=1.6 q=51.0 size=     512KiB time=00:00:03.45 bitrate=1215.8kbits/s speed=0.0132x elapsed=0:04:21.84    \nframe=  417 fps=1.6 q=51.0 size=     512KiB time=00:00:03.45 bitrate=1212.9kbits/s speed=0.0132x elapsed=0:04:22.36    \nframe=  418 fps=1.6 q=46.3 size=     512KiB time=00:00:03.46 bitrate=1210.0kbits/s speed=0.0132x elapsed=0:04:22.88    \nframe=  419 fps=1.6 q=49.7 size=     512KiB time=00:00:03.47 bitrate=1207.1kbits/s speed=0.0132x elapsed=0:04:23.40    \nframe=  421 fps=1.6 q=51.0 size=     512KiB time=00:00:03.49 bitrate=1201.3kbits/s speed=0.0132x elapsed=0:04:23.92    \nframe=  422 fps=1.6 q=45.8 size=     512KiB time=00:00:03.50 bitrate=1198.5kbits/s speed=0.0132x elapsed=0:04:24.46    \nframe=  424 fps=1.6 q=51.0 size=     512KiB time=00:00:03.51 bitrate=1192.8kbits/s speed=0.0133x elapsed=0:04:24.98    \nframe=  425 fps=1.6 q=51.0 size=     512KiB time=00:00:03.52 bitrate=1190.0kbits/s speed=0.0133x elapsed=0:04:25.50    \nframe=  426 fps=1.6 q=46.1 size=     512KiB time=00:00:03.53 bitrate=1187.2kbits/s speed=0.0133x elapsed=0:04:26.01    \nframe=  427 fps=1.6 q=49.9 size=     512KiB time=00:00:03.54 bitrate=1184.4kbits/s speed=0.0133x elapsed=0:04:26.52    \nframe=  428 fps=1.6 q=51.0 size=     512KiB time=00:00:03.55 bitrate=1181.6kbits/s speed=0.0133x elapsed=0:04:27.06    \nframe=  429 fps=1.6 q=51.0 size=     512KiB time=00:00:03.55 bitrate=1178.8kbits/s speed=0.0133x elapsed=0:04:27.57    \nframe=  430 fps=1.6 q=46.0 size=     512KiB time=00:00:03.56 bitrate=1176.1kbits/s speed=0.0133x elapsed=0:04:28.10    \nframe=  431 fps=1.6 q=49.6 size=     512KiB time=00:00:03.57 bitrate=1173.3kbits/s speed=0.0133x elapsed=0:04:28.62    \nframe=  432 fps=1.6 q=51.0 size=     512KiB time=00:00:03.58 bitrate=1170.6kbits/s speed=0.0133x elapsed=0:04:29.17    \nframe=  433 fps=1.6 q=51.0 size=     512KiB time=00:00:03.59 bitrate=1167.9kbits/s speed=0.0133x elapsed=0:04:29.70    \nframe=  433 fps=1.6 q=51.0 size=     512KiB time=00:00:03.59 bitrate=1167.9kbits/s speed=0.0133x elapsed=0:04:30.24    \nframe=  435 fps=1.6 q=49.7 size=     512KiB time=00:00:03.60 bitrate=1162.5kbits/s speed=0.0133x elapsed=0:04:30.77    \nframe=  437 fps=1.6 q=51.0 size=     512KiB time=00:00:03.62 bitrate=1157.1kbits/s speed=0.0134x elapsed=0:04:31.30    \nframe=  437 fps=1.6 q=51.0 size=     512KiB time=00:00:03.62 bitrate=1157.1kbits/s speed=0.0133x elapsed=0:04:31.84    \nframe=  439 fps=1.6 q=49.5 size=     512KiB time=00:00:03.64 bitrate=1151.9kbits/s speed=0.0134x elapsed=0:04:32.36    \nframe=  439 fps=1.6 q=49.5 size=     512KiB time=00:00:03.64 bitrate=1151.9kbits/s speed=0.0133x elapsed=0:04:32.88    \nframe=  441 fps=1.6 q=51.0 size=     512KiB time=00:00:03.65 bitrate=1146.6kbits/s speed=0.0134x elapsed=0:04:33.41    \nframe=  442 fps=1.6 q=45.2 size=     512KiB time=00:00:03.66 bitrate=1144.0kbits/s speed=0.0134x elapsed=0:04:33.95    \nframe=  443 fps=1.6 q=49.4 size=     512KiB time=00:00:03.67 bitrate=1141.4kbits/s speed=0.0134x elapsed=0:04:34.48    \nframe=  445 fps=1.6 q=51.0 size=     512KiB time=00:00:03.69 bitrate=1136.2kbits/s speed=0.0134x elapsed=0:04:35.01    \nframe=  446 fps=1.6 q=45.9 size=     512KiB time=00:00:03.70 bitrate=1133.7kbits/s speed=0.0134x elapsed=0:04:35.53    \nframe=  448 fps=1.6 q=51.0 size=     512KiB time=00:00:03.71 bitrate=1128.6kbits/s speed=0.0135x elapsed=0:04:36.04    \nframe=  449 fps=1.6 q=51.0 size=     512KiB time=00:00:03.72 bitrate=1126.1kbits/s speed=0.0135x elapsed=0:04:36.59    \nframe=  450 fps=1.6 q=46.2 size=     512KiB time=00:00:03.73 bitrate=1123.6kbits/s speed=0.0135x elapsed=0:04:37.13    \nframe=  451 fps=1.6 q=49.7 size=     512KiB time=00:00:03.74 bitrate=1121.1kbits/s speed=0.0135x elapsed=0:04:37.64    \nframe=  453 fps=1.6 q=51.0 size=     512KiB time=00:00:03.75 bitrate=1116.1kbits/s speed=0.0135x elapsed=0:04:38.19    \nframe=  453 fps=1.6 q=51.0 size=     512KiB time=00:00:03.75 bitrate=1116.1kbits/s speed=0.0135x elapsed=0:04:38.73    \nframe=  454 fps=1.6 q=46.2 size=     512KiB time=00:00:03.76 bitrate=1113.6kbits/s speed=0.0135x elapsed=0:04:39.24    \nframe=  455 fps=1.6 q=49.5 size=     512KiB time=00:00:03.77 bitrate=1111.2kbits/s speed=0.0135x elapsed=0:04:39.76    \nframe=  457 fps=1.6 q=51.0 size=     512KiB time=00:00:03.79 bitrate=1106.3kbits/s speed=0.0135x elapsed=0:04:40.28    \nframe=  457 fps=1.6 q=51.0 size=     512KiB time=00:00:03.79 bitrate=1106.3kbits/s speed=0.0135x elapsed=0:04:40.79    \nframe=  459 fps=1.6 q=49.8 size=     512KiB time=00:00:03.80 bitrate=1101.4kbits/s speed=0.0135x elapsed=0:04:41.32    \nframe=  460 fps=1.6 q=51.0 size=     512KiB time=00:00:03.81 bitrate=1099.0kbits/s speed=0.0135x elapsed=0:04:41.83    \nframe=  461 fps=1.6 q=51.0 size=     512KiB time=00:00:03.82 bitrate=1096.6kbits/s speed=0.0135x elapsed=0:04:42.36    \nframe=  463 fps=1.6 q=49.5 size=     512KiB time=00:00:03.84 bitrate=1091.9kbits/s speed=0.0136x elapsed=0:04:42.87    \nframe=  465 fps=1.6 q=51.0 size=     512KiB time=00:00:03.85 bitrate=1087.2kbits/s speed=0.0136x elapsed=0:04:43.39    \nframe=  466 fps=1.6 q=46.1 size=     512KiB time=00:00:03.86 bitrate=1084.8kbits/s speed=0.0136x elapsed=0:04:43.91    \nframe=  467 fps=1.6 q=49.5 size=     512KiB time=00:00:03.87 bitrate=1082.5kbits/s speed=0.0136x elapsed=0:04:44.44    \nframe=  469 fps=1.6 q=51.0 size=     512KiB time=00:00:03.89 bitrate=1077.9kbits/s speed=0.0137x elapsed=0:04:44.96    \nframe=  469 fps=1.6 q=51.0 size=     512KiB time=00:00:03.89 bitrate=1077.9kbits/s speed=0.0136x elapsed=0:04:45.50    \nframe=  471 fps=1.6 q=49.8 size=     512KiB time=00:00:03.90 bitrate=1073.3kbits/s speed=0.0137x elapsed=0:04:46.03    \nframe=  472 fps=1.6 q=51.0 size=     512KiB time=00:00:03.91 bitrate=1071.0kbits/s speed=0.0137x elapsed=0:04:46.56    \nframe=  473 fps=1.6 q=51.0 size=     512KiB time=00:00:03.92 bitrate=1068.7kbits/s speed=0.0137x elapsed=0:04:47.08    \nframe=  475 fps=1.7 q=49.7 size=     512KiB time=00:00:03.94 bitrate=1064.2kbits/s speed=0.0137x elapsed=0:04:47.59    \nframe=  477 fps=1.7 q=51.0 size=     512KiB time=00:00:03.95 bitrate=1059.7kbits/s speed=0.0137x elapsed=0:04:48.10    \nframe=  477 fps=1.7 q=51.0 size=     512KiB time=00:00:03.95 bitrate=1059.7kbits/s speed=0.0137x elapsed=0:04:48.62    \nframe=  479 fps=1.7 q=49.8 size=     512KiB time=00:00:03.97 bitrate=1055.3kbits/s speed=0.0137x elapsed=0:04:49.13    \nframe=  481 fps=1.7 q=51.0 size=     512KiB time=00:00:03.99 bitrate=1050.9kbits/s speed=0.0138x elapsed=0:04:49.67    \nframe=  482 fps=1.7 q=46.3 size=     512KiB time=00:00:04.00 bitrate=1048.7kbits/s speed=0.0138x elapsed=0:04:50.19    \nframe=  483 fps=1.7 q=49.8 size=     512KiB time=00:00:04.00 bitrate=1046.5kbits/s speed=0.0138x elapsed=0:04:50.77    \nframe=  485 fps=1.7 q=51.0 size=     512KiB time=00:00:04.02 bitrate=1042.2kbits/s speed=0.0138x elapsed=0:04:51.30    \nframe=  486 fps=1.7 q=46.3 size=     512KiB time=00:00:04.03 bitrate=1040.0kbits/s speed=0.0138x elapsed=0:04:51.84    \nframe=  486 fps=1.7 q=46.3 size=     512KiB time=00:00:04.03 bitrate=1040.0kbits/s speed=0.0138x elapsed=0:04:52.40    \nframe=  487 fps=1.7 q=49.7 size=     512KiB time=00:00:04.04 bitrate=1037.9kbits/s speed=0.0138x elapsed=0:04:52.91    \nframe=  488 fps=1.7 q=51.0 size=     512KiB time=00:00:04.05 bitrate=1035.7kbits/s speed=0.0138x elapsed=0:04:53.43    \nframe=  490 fps=1.7 q=46.2 size=     512KiB time=00:00:04.06 bitrate=1031.5kbits/s speed=0.0138x elapsed=0:04:53.94    \nframe=  492 fps=1.7 q=51.0 size=     512KiB time=00:00:04.08 bitrate=1027.3kbits/s speed=0.0139x elapsed=0:04:54.46    \nframe=  493 fps=1.7 q=51.0 size=     512KiB time=00:00:04.09 bitrate=1025.2kbits/s speed=0.0139x elapsed=0:04:54.98    \nframe=  495 fps=1.7 q=49.4 size=     768KiB time=00:00:04.10 bitrate=1534.6kbits/s speed=0.0139x elapsed=0:04:55.53    \nframe=  495 fps=1.7 q=49.4 size=     768KiB time=00:00:04.10 bitrate=1531.5kbits/s speed=0.0139x elapsed=0:04:56.07    \nframe=  496 fps=1.7 q=51.0 size=     768KiB time=00:00:04.11 bitrate=1528.4kbits/s speed=0.0139x elapsed=0:04:56.58    \nframe=  497 fps=1.7 q=51.0 size=     768KiB time=00:00:04.12 bitrate=1525.3kbits/s speed=0.0139x elapsed=0:04:57.12    \nframe=  498 fps=1.7 q=43.4 size=     768KiB time=00:00:04.13 bitrate=1522.2kbits/s speed=0.0139x elapsed=0:04:57.64    \nframe=  500 fps=1.7 q=51.0 size=     768KiB time=00:00:04.15 bitrate=1516.1kbits/s speed=0.0139x elapsed=0:04:58.18    \nframe=  503 fps=1.7 q=49.3 size=     768KiB time=00:00:04.17 bitrate=1507.0kbits/s speed=0.014x elapsed=0:04:58.71    \nframe=  505 fps=1.7 q=51.0 size=     768KiB time=00:00:04.19 bitrate=1501.0kbits/s speed=0.014x elapsed=0:04:59.24    \nframe=  505 fps=1.7 q=51.0 size=     768KiB time=00:00:04.19 bitrate=1501.0kbits/s speed=0.014x elapsed=0:04:59.79    \nframe=  508 fps=1.7 q=51.0 size=     768KiB time=00:00:04.21 bitrate=1492.1kbits/s speed=0.014x elapsed=0:05:00.30    \nframe=  509 fps=1.7 q=51.0 size=     768KiB time=00:00:04.22 bitrate=1489.2kbits/s speed=0.014x elapsed=0:05:00.86    \nframe=  511 fps=1.7 q=49.6 size=     768KiB time=00:00:04.24 bitrate=1483.3kbits/s speed=0.0141x elapsed=0:05:01.39    \nframe=  513 fps=1.7 q=51.0 size=     768KiB time=00:00:04.25 bitrate=1477.5kbits/s speed=0.0141x elapsed=0:05:01.92    \nframe=  514 fps=1.7 q=46.4 size=     768KiB time=00:00:04.26 bitrate=1474.6kbits/s speed=0.0141x elapsed=0:05:02.44    \nframe=  515 fps=1.7 q=49.5 size=     768KiB time=00:00:04.26 bitrate=1474.6kbits/s speed=0.0141x elapsed=0:05:02.98    \nframe=  517 fps=1.7 q=51.0 size=     768KiB time=00:00:04.29 bitrate=1466.1kbits/s speed=0.0141x elapsed=0:05:03.52    \nframe=  517 fps=1.7 q=51.0 size=     768KiB time=00:00:04.29 bitrate=1466.1kbits/s speed=0.0141x elapsed=0:05:04.04    \nframe=  518 fps=1.7 q=46.0 size=     768KiB time=00:00:04.30 bitrate=1463.2kbits/s speed=0.0141x elapsed=0:05:04.60    \nframe=  520 fps=1.7 q=51.0 size=     768KiB time=00:00:04.31 bitrate=1457.6kbits/s speed=0.0141x elapsed=0:05:05.12    \nframe=  521 fps=1.7 q=51.0 size=     768KiB time=00:00:04.32 bitrate=1454.8kbits/s speed=0.0142x elapsed=0:05:05.65    \nframe=  521 fps=1.7 q=51.0 size=     768KiB time=00:00:04.32 bitrate=1454.8kbits/s speed=0.0141x elapsed=0:05:06.18    \nframe=  523 fps=1.7 q=49.6 size=     768KiB time=00:00:04.34 bitrate=1449.2kbits/s speed=0.0142x elapsed=0:05:06.73    \nframe=  524 fps=1.7 q=51.0 size=     768KiB time=00:00:04.35 bitrate=1446.4kbits/s speed=0.0142x elapsed=0:05:07.25    \nframe=  526 fps=1.7 q=46.0 size=     768KiB time=00:00:04.36 bitrate=1440.9kbits/s speed=0.0142x elapsed=0:05:07.79    \nframe=  527 fps=1.7 q=49.5 size=     768KiB time=00:00:04.37 bitrate=1438.1kbits/s speed=0.0142x elapsed=0:05:08.31    \nframe=  529 fps=1.7 q=51.0 size=     768KiB time=00:00:04.39 bitrate=1432.7kbits/s speed=0.0142x elapsed=0:05:08.85    \nframe=  529 fps=1.7 q=51.0 size=     768KiB time=00:00:04.39 bitrate=1432.7kbits/s speed=0.0142x elapsed=0:05:09.39    \nframe=  530 fps=1.7 q=46.5 size=     768KiB time=00:00:04.40 bitrate=1430.0kbits/s speed=0.0142x elapsed=0:05:09.90    \nframe=  531 fps=1.7 q=49.6 size=     768KiB time=00:00:04.40 bitrate=1427.3kbits/s speed=0.0142x elapsed=0:05:10.41    \nframe=  532 fps=1.7 q=51.0 size=     768KiB time=00:00:04.41 bitrate=1424.6kbits/s speed=0.0142x elapsed=0:05:10.93    \nframe=  533 fps=1.7 q=51.0 size=     768KiB time=00:00:04.42 bitrate=1421.9kbits/s speed=0.0142x elapsed=0:05:11.44    \nframe=  534 fps=1.7 q=46.0 size=     768KiB time=00:00:04.43 bitrate=1419.2kbits/s speed=0.0142x elapsed=0:05:11.96    \nframe=  535 fps=1.7 q=49.8 size=     768KiB time=00:00:04.44 bitrate=1416.5kbits/s speed=0.0142x elapsed=0:05:12.51    \nframe=  537 fps=1.7 q=51.0 size=     768KiB time=00:00:04.45 bitrate=1411.2kbits/s speed=0.0142x elapsed=0:05:13.03    \nframe=  537 fps=1.7 q=51.0 size=     768KiB time=00:00:04.45 bitrate=1411.2kbits/s speed=0.0142x elapsed=0:05:13.56    \nframe=  538 fps=1.7 q=45.9 size=     768KiB time=00:00:04.46 bitrate=1408.6kbits/s speed=0.0142x elapsed=0:05:14.10    \nframe=  539 fps=1.7 q=49.5 size=     768KiB time=00:00:04.47 bitrate=1406.0kbits/s speed=0.0142x elapsed=0:05:14.60    \nframe=  541 fps=1.7 q=51.0 size=     768KiB time=00:00:04.49 bitrate=1400.8kbits/s speed=0.0143x elapsed=0:05:15.14    \nframe=  541 fps=1.7 q=51.0 size=     768KiB time=00:00:04.49 bitrate=1400.8kbits/s speed=0.0142x elapsed=0:05:15.67    \nframe=  543 fps=1.7 q=49.7 size=     768KiB time=00:00:04.50 bitrate=1395.6kbits/s speed=0.0143x elapsed=0:05:16.19    \nframe=  544 fps=1.7 q=51.0 size=     768KiB time=00:00:04.51 bitrate=1393.0kbits/s speed=0.0143x elapsed=0:05:16.75    \nframe=  545 fps=1.7 q=51.0 size=     768KiB time=00:00:04.52 bitrate=1390.5kbits/s speed=0.0143x elapsed=0:05:17.28    \nframe=  546 fps=1.7 q=46.2 size=     768KiB time=00:00:04.53 bitrate=1387.9kbits/s speed=0.0143x elapsed=0:05:17.82    \nframe=  546 fps=1.7 q=46.2 size=     768KiB time=00:00:04.53 bitrate=1387.9kbits/s speed=0.0142x elapsed=0:05:18.35    \nframe=  547 fps=1.7 q=49.6 size=     768KiB time=00:00:04.54 bitrate=1385.4kbits/s speed=0.0142x elapsed=0:05:18.89    \nframe=  549 fps=1.7 q=51.0 size=     768KiB time=00:00:04.55 bitrate=1380.3kbits/s speed=0.0143x elapsed=0:05:19.40    \nframe=  550 fps=1.7 q=45.9 size=     768KiB time=00:00:04.56 bitrate=1377.8kbits/s speed=0.0143x elapsed=0:05:19.92    \nframe=  552 fps=1.7 q=51.0 size=     768KiB time=00:00:04.57 bitrate=1375.3kbits/s speed=0.0143x elapsed=0:05:20.43    \nframe=  553 fps=1.7 q=51.0 size=     768KiB time=00:00:04.59 bitrate=1370.3kbits/s speed=0.0143x elapsed=0:05:20.96    \nframe=  553 fps=1.7 q=51.0 size=     768KiB time=00:00:04.59 bitrate=1370.3kbits/s speed=0.0143x elapsed=0:05:21.48    \nframe=  555 fps=1.7 q=50.0 size=     768KiB time=00:00:04.60 bitrate=1367.8kbits/s speed=0.0143x elapsed=0:05:22.00    \nframe=  556 fps=1.7 q=51.0 size=     768KiB time=00:00:04.61 bitrate=1362.8kbits/s speed=0.0143x elapsed=0:05:22.51    \nframe=  557 fps=1.7 q=51.0 size=     768KiB time=00:00:04.62 bitrate=1360.4kbits/s speed=0.0143x elapsed=0:05:23.03    \nframe=  558 fps=1.7 q=51.0 size=     768KiB time=00:00:04.63 bitrate=1357.9kbits/s speed=0.0143x elapsed=0:05:23.56    \nframe=  559 fps=1.7 q=46.6 size=     768KiB time=00:00:04.64 bitrate=1355.5kbits/s speed=0.0143x elapsed=0:05:24.07    \nframe=  561 fps=1.7 q=51.0 size=     768KiB time=00:00:04.65 bitrate=1350.7kbits/s speed=0.0144x elapsed=0:05:24.61    \nframe=  562 fps=1.7 q=51.0 size=     768KiB time=00:00:04.66 bitrate=1348.2kbits/s speed=0.0144x elapsed=0:05:25.14    \nframe=  562 fps=1.7 q=51.0 size=     768KiB time=00:00:04.66 bitrate=1348.2kbits/s speed=0.0143x elapsed=0:05:25.69    \nframe=  564 fps=1.7 q=49.8 size=     768KiB time=00:00:04.68 bitrate=1343.4kbits/s speed=0.0144x elapsed=0:05:26.22    \nframe=  566 fps=1.7 q=51.0 size=     768KiB time=00:00:04.69 bitrate=1341.1kbits/s speed=0.0144x elapsed=0:05:26.74    \nframe=  566 fps=1.7 q=51.0 size=     768KiB time=00:00:04.70 bitrate=1338.7kbits/s speed=0.0144x elapsed=0:05:27.28    \nframe=  567 fps=1.7 q=46.3 size=     768KiB time=00:00:04.70 bitrate=1336.3kbits/s speed=0.0144x elapsed=0:05:27.79    \nframe=  569 fps=1.7 q=51.0 size=     768KiB time=00:00:04.72 bitrate=1331.6kbits/s speed=0.0144x elapsed=0:05:28.32    \nframe=  570 fps=1.7 q=51.0 size=     768KiB time=00:00:04.73 bitrate=1329.3kbits/s speed=0.0144x elapsed=0:05:28.85    \nframe=  571 fps=1.7 q=46.3 size=     768KiB time=00:00:04.74 bitrate=1326.9kbits/s speed=0.0144x elapsed=0:05:29.38    \nframe=  573 fps=1.7 q=51.0 size=     768KiB time=00:00:04.75 bitrate=1322.3kbits/s speed=0.0144x elapsed=0:05:29.90    \nframe=  574 fps=1.7 q=51.0 size=     768KiB time=00:00:04.76 bitrate=1320.0kbits/s speed=0.0144x elapsed=0:05:30.41    \nframe=  576 fps=1.7 q=49.7 size=     768KiB time=00:00:04.78 bitrate=1315.4kbits/s speed=0.0145x elapsed=0:05:30.94    \nframe=  578 fps=1.7 q=51.0 size=     768KiB time=00:00:04.80 bitrate=1310.8kbits/s speed=0.0145x elapsed=0:05:31.49    \nframe=  578 fps=1.7 q=51.0 size=     768KiB time=00:00:04.80 bitrate=1310.8kbits/s speed=0.0145x elapsed=0:05:31.99    \nframe=  579 fps=1.7 q=46.1 size=     768KiB time=00:00:04.80 bitrate=1308.5kbits/s speed=0.0145x elapsed=0:05:32.52    \nframe=  581 fps=1.7 q=51.0 size=     768KiB time=00:00:04.82 bitrate=1304.0kbits/s speed=0.0145x elapsed=0:05:33.04    \nframe=  582 fps=1.7 q=51.0 size=     768KiB time=00:00:04.83 bitrate=1301.8kbits/s speed=0.0145x elapsed=0:05:33.56    \nframe=  583 fps=1.7 q=51.0 size=     768KiB time=00:00:04.84 bitrate=1299.5kbits/s speed=0.0145x elapsed=0:05:34.07    \nframe=  587 fps=1.8 q=51.0 size=     768KiB time=00:00:04.87 bitrate=1290.6kbits/s speed=0.0146x elapsed=0:05:34.59    \nframe=  589 fps=1.8 q=48.1 size=     768KiB time=00:00:04.89 bitrate=1286.2kbits/s speed=0.0146x elapsed=0:05:35.10    \nframe=  592 fps=1.8 q=51.0 size=     768KiB time=00:00:04.91 bitrate=1279.7kbits/s speed=0.0146x elapsed=0:05:35.61    \nframe=  594 fps=1.8 q=49.7 size=     768KiB time=00:00:04.93 bitrate=1275.4kbits/s speed=0.0147x elapsed=0:05:36.13    \nframe=  597 fps=1.8 q=48.4 size=     768KiB time=00:00:04.95 bitrate=1268.9kbits/s speed=0.0147x elapsed=0:05:36.64    \n[mp4 @ 0000017a26b79bc0] Starting second pass: moving the moov atom to the beginning of the file\n[out#0/mp4 @ 0000017a26b79ac0] video:930KiB audio:0KiB subtitle:0KiB other streams:0KiB global headers:2KiB muxing overhead: 1.168811%\nframe=  600 fps=1.8 q=51.0 Lsize=     941KiB time=00:00:04.98 bitrate=1546.7kbits/s speed=0.0148x elapsed=0:05:36.87    \nx265 [info]: frame I:      3, Avg QP:45.78  kb/s: 7752.32 \nx265 [info]: frame P:    147, Avg QP:45.84  kb/s: 4743.87 \nx265 [info]: frame B:    450, Avg QP:50.19  kb/s: 425.18  \nx265 [info]: Weighted P-Frames: Y:0.0% UV:0.0%\n\nencoded 600 frames in 336.72s (1.78 fps), 1519.90 kb/s, Avg QP:49.10\n",
  "seconds": 336.96984124183655,
  "probe_out": {}
}